/* XPM */
static char *result[] = {
/* columns rows colors chars-per-pixel */
"64 64 16 1 ",
"  c #000001",
". c #0C0C0B",
"X c #18180F",
"o c #111110",
"O c #161614",
"+ c #261C19",
"@ c #242219",
"# c #302A15",
"$ c #303623",
"% c #323927",
"& c #4F4B3C",
"* c #656849",
"= c #9BDB00",
"- c #808652",
"; c #98B748",
": c #000000",
/* pixels */
"     :::::::::::::::::::::::::::::::::::::::::::::::::::::::::::",
"&%&%.:::::::::::::::::::::::::::::::::::::::::::::::::::::::::::",
"%%%#.:::::::::::::::::::::::::::::::::::::::::::::::::::::::::::",
"%*%#.:::::::::::::::::::::::::::::::::::::::::::::::::::::::::::",
"#%%#.:::::::::::::::::::::::::::::::::::::::::::::::::::::::::::",
"&%%#.:::::::::::::::::::::::::::::::::::::::::::::::::::::::::::",
"#&%#.:::::::::::::::::::::::::::::::::::::::::::::::::::::::::::",
"#*%#.:::::::::::::::::::::::::::::::::::::::::::::::::::::::::::",
"#*%#.:::::::::::::::::::::::::::::::::::::::::::::::::::::::::::",
"#*%#.:::::::::::::::::::::::::::::::::::::::::::::::::::::::::::",
"%;&%.:::::::::::::::::::::::::::::::::::::::::::::::::::::::::::",
"#;%#.:::::::::::::::::::::::::::::::::::::::::::::::::::::::::::",
";&&%.:::::::::::::::::::::::::::::::::::::::::::::::::::::::::::",
"&&&#.:::::::::::::::::::::::::::::::::::::::::::::::::::::::::::",
"&&&%.:::::::::::::::::::::::::::::::::::::::::::::::::::::::::::",
"&&&#.:::::::::::::::::::::::::::::::::::::::::::::::::::::::::::",
"#### :::::::::::::::::::::::::::::::::::::::::::::::::::::::::::",
"     :::::::::::::::::::::::::::::::::::::::::::::::::::::::::::",
"::::::::::::::::::::::::::::::::::::::::::::::::::::::::::::OOOO",
"::::::::::::::::::::::::::::::::::::::::::::::::::::::::::::.=;;",
"::::::::::::::::::::::::::::::::::::::::::::::::::::::::::::.;*&",
"::::::::::::::::::::::::::::::::::::::::::::::::::::::::::::.-&&",
"::::::::::::::::::::::::::::::::::::::::::::::::::::::::::::.-&&",
"::::::::::::::::::::::::::::::::::::::::::::::::::::::::::::.-&&",
"::::::::::::::::::::::::::::::::::::::::::::::::::::::::::::.-&&",
"::::::::::::::::::::::::::::::::::::::::::::::::::::::::::::.-&&",
"::::::::::::::::::::::::::::::::::::::::::::::::::::::::::::.-&&",
"::::::::::::::::::::::::::::::::::::::::::::::::::::::::::::.-&&",
"::::::::::::::::::::::::::::::::::::::::::::::::::::::::::::.-&&",
"::::::::::::::::::::::::::::::::::::::::::::::::::::::::::::.-&&",
"::::::::::::::::::::::::::::::::::::::::::::::::::::::::::::.-&&",
"::::::::::::::::::::::::::::::::::::::::::::::::::::::::::::+-&&",
"::::::::::::::::::::::::::::::::::::::::::::::::::::::::::::.-&&",
"::::::::::::::::::::::::::::::::::::::::::::::::::::::::::::+*&&",
"::::::::::::::::::::::::::::::::::::::::::::::::::::::::::::.-&&",
"::::::::::::::::::::::::::::::::::::::::::::::::::::::::::::+*&&",
"::::::::::::::::::::::::::::::::::::::::::::::::::::::::::::+-&&",
"::::::::::::::::::::::::::::::::::::::::::::::::::::::::::::+*&&",
"::::::::::::::::::::::::::::::::::::::::::::::::::::::::::::+*&&",
"::::::::::::::::::::::::::::::::::::::::::::::::::::::::::::+*&&",
"::::::::::::::::::::::::::::::::::::::::::::::::::::::::::::O*&&",
"::::::::::::::::::::::::::::::::::::::::::::::::::::::::::::+*&&",
"::::::::::::::::::::::::::::::::::::::::::::::::::::::::::::O&&&",
"::::::::::::::::::::::::::::::::::::::::::::::::::::::::::::+*&&",
"::::::::::::::::::::::::::::::::::::::::::::::::::::::::::::O&&&",
"::::::::::::::::::::::::::::::::::::::::::::::::::::::::::::.*&&",
"::::::::::::::::::::::::::::::::::::::::::::::::::::::::::::O&&&",
"::::::::::::::::::::::::::::::::::::::::::::::::::::::::::::.&&&",
"::::::::::::::::::::::::::::::::::::::::::::::::::::::::::::.&&&",
"::::::::::::::::::::::::::::::::::::::::::::::::::::::::::::.&&#",
"::::::::::::::::::::::::::::::::::::::::::::::::::::::::::::.&&#",
"::::::::::::::::::::::::::::::::::::::::::::::::::::::::::::.&&#",
"::::::::::::::::::::::::::::::::::::::::::::::::::::::::::::O&&&",
"::::::::::::::::::::::::::::::::::::::::::::::::::::::::::::.&*&",
"::::::::::::::::::::::::::::::::::::::::::::::::::::::::::::O.  ",
"::::::::::::::::::::::::::::::::::::::::::::::::::::::::::::O  O",
"::::::::::::::::::::::::::::::::::::::::::::::::::::::::::::$@$$",
"::::::::::::::::::::::::::::::::::::::::::::::::::::::::::::oXXX",
"::::::::::::::::::::::::::::::::::::::::::::::::::::::::::::XXXX",
"::::::::::::::::::::::::::::::::::::::::::::::::::::::::::::XXX$",
"::::::::::::::::::::::::::::::::::::::::::::::::::::::::::::XXo ",
"::::::::::::::::::::::::::::::::::::::::::::::::::::::::::::XXoo",
"::::::::::::::::::::::::::::::::::::::::::::::::::::::::::::XXXX",
"::::::::::::::::::::::::::::::::::::::::::::::::::::::::::::...."
};
