/* XPM */
static char *result[] = {
/* columns rows colors chars-per-pixel */
"64 64 22 1 ",
"  c #000001",
". c #0C0C0B",
"X c #18180F",
"o c #111110",
"O c #161614",
"+ c #261C19",
"@ c #242119",
"# c #242219",
"$ c #302A15",
"% c #303623",
"& c #343527",
"* c #323927",
"= c #005920",
"- c #007935",
"; c #4F4B3C",
": c #656849",
"> c #00932A",
", c #9BDB00",
"< c #FFED00",
"1 c #808652",
"2 c #98B748",
"3 c #000000",
/* pixels */
"                          33333333333333333333333333333         ",
"*;;;;;;..;;;;;;*;*;;;;*;*.33333333333333333333333333333.;;;;;;;;",
"*******.O;**************$.33333333333333333333333333333.********",
"*******.O;*:**::::;***:*$.33333333333333333333333333333O********",
"*******.O;$**:$$$$$$*$**$.33333333333333333333333333333O********",
"*******.+;**:$$$$$$$$;**$.33333333333333333333333333333O********",
"*******.O;*:$$$=>>=$$$;*$.33333333333333333333333333333+********",
"*******.+;*:$$=>-->=$$:*$.33333333333333333333333333333O********",
";;;;;;;.O;*:$$>-,<->$$:*$.33333333333333333333333333333+;;;;;;;;",
"*******..;*:$$>-<,->$$:*$.33333333333333333333333333333O********",
";;;;;;;.O:;2**=>-->=**2;*.33333333333333333333333333333+;;;;;;;;",
";;;;;;;..;*:$$$=>>=$$$2*$.33333333333333333333333333333O;;;;;;;;",
";;;;;;1..:;;:********2;;*.33333333333333333333333333333.;;;;;;;;",
";;;;;;;..:;;;:******2;;;$.33333333333333333333333333333O1;;;;;;;",
";;;;;;1.O:;;;;:2:222;;;;*.33333333333333333333333333333.;;;;;;;;",
";;;;;;1O+:;;;;;;;;;;;;;;$.33333333333333333333333333333.1;;;;;;;",
";;;;;;1OO;***$*$$$$$$$$$$ 33333333333333333333333333333.1;;;;;;;",
";;;;;;1OO..  .            33333333333333333333333333333.1;;;;;;;",
";;;;;;:&OO+O+O...33333333333333333333333333333OOOOO+O+O&:;;;;;;;",
";;;;;;;:1111222,.33333333333333333333333333333.,2212111:;;;;;;;;",
";;;;;;;;;;;;;;:2+33333333333333333333333333333.2:;;;;;;;;;;;;;;;",
";;;;;;;;;;;;;;;1.33333333333333333333333333333.1;;;;;;;;;;;;;;;;",
";;;;;;;;;;;;;;;1+33333333333333333333333333333.1;;;;;;;;;;;;;;;;",
";;;;;;;;;;;;;;;1.33333333333333333333333333333.1;;;;;;;;;;;;;;;;",
";;;;;;;;;;;;;;;1.33333333333333333333333333333.1;;;;;;;;;;;;;;;;",
";;;;;;;;;;;;;;;1.33333333333333333333333333333.1;;;;;;;;;;;;;;;;",
";;;;;;;;;;;;;;;1.33333333333333333333333333333.1;;;;;;;;;;;;;;;;",
";;;;;;;;;;;;;;;:.33333333333333333333333333333.1;;;;;;;;;;;;;;;;",
";;;;;;;;;;;;;;;1.33333333333333333333333333333.1;;;;;;;;;;;;;;;;",
";;;;;;;;;;;;;;;:.33333333333333333333333333333.1;;;;;;;;;;;;;;;;",
";;;;;;;;;;;;;;;1.33333333333333333333333333333.1;;;;;;;;;;;;;;;;",
";;;;;;;;;;;;;;;:.33333333333333333333333333333+1;;;;;;;;;;;;;;;;",
";;;;;;;;;;;;;;;:+33333333333333333333333333333.1;;;;;;;;;;;;;;;;",
";;;;;;;;;;;;;;;:.33333333333333333333333333333+:;;;;;;;;;;;;;;;;",
";;;;;;;;;;;;;;;:+33333333333333333333333333333.1;;;;;;;;;;;;;;;;",
";;;;;;;;;;;;;;;:.33333333333333333333333333333+:;;;;;;;;;;;;;;;;",
";;;;;;;;;;;;;;;:+33333333333333333333333333333+1;;;;;;;;;;;;;;;;",
";;;;;;;;;;;;;;;:.33333333333333333333333333333+:;;;;;;;;;;;;;;;;",
";;;;;;;;;;;;;;;:+33333333333333333333333333333+:;;;;;;;;;;;;;;;;",
";;;;;;;;;;;;;;;:.33333333333333333333333333333+:;;;;;;;;;;;;;;;;",
";;;;;;;;;;;;;;;;.33333333333333333333333333333O:;;;;;;;;;;;;;;;;",
";;;;;;;;;;;;;;;:.33333333333333333333333333333+:;;;;;;;;;;;;;;;;",
";;;;;;;;;;;;;;;;.33333333333333333333333333333O;;;;;;;;;;;;;;;;;",
";;;;;;;;;;;;;;;;.33333333333333333333333333333+:;;;;;;;;;;;;;;;;",
";;;;;;;;;;;;;;;;.33333333333333333333333333333O;;;;;;;;;;;;;;;;;",
";;;;;;;;;;;;;;;;.33333333333333333333333333333.:;;;;;;;;;;;;;;;;",
";;;;;;;;;;;;;;;;.33333333333333333333333333333O;;;;;;;;;;;;;;;;;",
";;;;;;;;;;;;;;;;.33333333333333333333333333333.;;;;;;;;;;;;;;;;;",
";;;;;;;;;;;;;;;;.33333333333333333333333333333.;;;;;;;;;;;;;;;;;",
";;;;;;;;;;$1*;;;.33333333333333333333333333333.;;$1*;;;;;;;;;;;;",
";;;;;;;;;;$**;;;.33333333333333333333333333333.;;$**;;;;;;;;;;;;",
";;;;;;;;;;$$;;;;.33333333333333333333333333333.;;$$;;;;;;;;;;;;;",
";;;;;;;;;;;;;;;;.33333333333333333333333333333O;;;;;;;;;;;;;;;;;",
":::::::::::::;:;.33333333333333333333333333333.;:;:::::::;:;:;::",
"                .33333333333333333333333333333O.                ",
"OO  OO. OO  OO. O33333333333333333333333333333O  OO. OO  OO. OO ",
"%#%#%#%######%#%#33333333333333333333333333333%#%%%%%%%%%%%%%%%%",
"XXXXXXXXXXoXXXXXX33333333333333333333333333333oXXXXXXXoXXXXXXXoX",
"XXXXXXXXooXXXXXXX33333333333333333333333333333XXXXXXX@@@XXXXXXXo",
"XXXX%.XXoXX@%.XXX33333333333333333333333333333XXX%.X@X@XX%.XXXoX",
"XXXo .XoXoXo .XXo33333333333333333333333333333XXo .XX@XXo .XXoXX",
"XXXooXXXoXXoo@XXX33333333333333333333333333333XXooXX@XXXooXXooXX",
"XXXXXXXoXXXX@@XXX33333333333333333333333333333XXXXX@XXXXXXXXoXXX",
"...o.o. . .    . 33333333333333333333333333333........o.o..o.o.o"
};
