/* XPM */
static char *result[] = {
/* columns rows colors chars-per-pixel */
"64 64 215 2 ",
"   c #000001",
".  c #0E0705",
"X  c #02030B",
"o  c #08060B",
"O  c #0C0D0C",
"+  c #130B05",
"@  c #180D0A",
"#  c #171309",
"$  c #1D130B",
"%  c #020413",
"&  c #080A11",
"*  c #040918",
"=  c #090A1A",
"-  c #100D13",
";  c #0F1112",
":  c #141113",
">  c #1B1613",
",  c #1A141A",
"<  c #121B1D",
"1  c #1F1918",
"2  c #21120C",
"3  c #23190A",
"4  c #2A1D0C",
"5  c #32140E",
"6  c #361A0A",
"7  c #321712",
"8  c #381B13",
"9  c #341C19",
"0  c #2D200F",
"q  c #342201",
"w  c #3F2801",
"e  c #382416",
"r  c #34201E",
"t  c #1B2525",
"y  c #18282A",
"u  c #242D2E",
"i  c #2C2A29",
"p  c #362122",
"a  c #392326",
"s  c #3A262A",
"d  c #342B2D",
"f  c #3A292D",
"g  c #38342C",
"h  c #2D2D30",
"j  c #372C30",
"k  c #3B2C31",
"l  c #2D3333",
"z  c #273738",
"x  c #2F3A3B",
"c  c #343435",
"v  c #3C3235",
"b  c #3C363A",
"n  c #363839",
"m  c #323C3D",
"M  c #3D3B3E",
"N  c #452D04",
"B  c #452409",
"V  c #4B2A0B",
"C  c #4C3406",
"Z  c #493109",
"A  c #513707",
"S  c #52390A",
"D  c #5D3F0F",
"F  c #5C3F12",
"G  c #603700",
"H  c #623D00",
"J  c #7E3700",
"K  c #452C27",
"L  c #46332E",
"P  c #51382C",
"I  c #4A3833",
"U  c #443D3B",
"Y  c #513F36",
"T  c #3B403F",
"R  c #5B4218",
"E  c #764A00",
"W  c #764D00",
"Q  c #755107",
"!  c #7B5200",
"~  c #604110",
"^  c #664C1F",
"/  c #6F4F19",
"(  c #45412D",
")  c #41403D",
"_  c #4C423D",
"`  c #5B543D",
"'  c #775D27",
"]  c #755F2D",
"[  c #785F2C",
"{  c #6C5B34",
"}  c #65593A",
"|  c #655A3A",
" . c #7B602A",
".. c #7C6229",
"X. c #76653A",
"o. c #1A3245",
"O. c #263946",
"+. c #2D3B44",
"@. c #273C48",
"#. c #333F40",
"$. c #3C3E41",
"%. c #354142",
"&. c #3B4345",
"*. c #33434F",
"=. c #3D4649",
"-. c #3E4A4C",
";. c #2F485C",
":. c #354653",
">. c #364A56",
",. c #3D4C52",
"<. c #394A56",
"1. c #374C59",
"2. c #3E5154",
"3. c #3B515B",
"4. c #434445",
"5. c #494542",
"6. c #464946",
"7. c #4E4F44",
"8. c #40474A",
"9. c #414C4E",
"0. c #494F4A",
"q. c #514E4D",
"w. c #4F5046",
"e. c #555342",
"r. c #595441",
"t. c #565C45",
"y. c #54524D",
"u. c #424E50",
"i. c #484C52",
"p. c #435153",
"a. c #4A5252",
"s. c #45565A",
"d. c #465A5D",
"f. c #485B5E",
"g. c #535759",
"h. c #66584E",
"j. c #586751",
"k. c #666E5E",
"l. c #455D60",
"z. c #4A5E61",
"x. c #455E68",
"c. c #466265",
"v. c #4B6265",
"b. c #4D6669",
"n. c #4E696E",
"m. c #506A6F",
"M. c #4F6C70",
"N. c #516D72",
"B. c #527175",
"V. c #55777C",
"C. c #56797E",
"Z. c #6E7E6C",
"A. c #8E4600",
"S. c #8E4A00",
"D. c #924C00",
"F. c #815601",
"G. c #855706",
"H. c #825A05",
"J. c #8A5C02",
"K. c #905700",
"L. c #9E5700",
"P. c #945B00",
"I. c #9C5D00",
"U. c #815D11",
"Y. c #A15B00",
"T. c #9B6100",
"R. c #9E6D0B",
"E. c #8D6514",
"W. c #8B651D",
"Q. c #8D6E1B",
"!. c #916610",
"~. c #946915",
"^. c #996B11",
"/. c #936A19",
"(. c #8D7819",
"). c #98711F",
"_. c #A26400",
"`. c #A26B01",
"'. c #AC6C00",
"]. c #A67300",
"[. c #AE7400",
"{. c #A87705",
"}. c #B27500",
"|. c #B87700",
" X c #B57900",
".X c #BA7A00",
"XX c #B87F0D",
"oX c #A67B1D",
"OX c #836324",
"+X c #896521",
"@X c #8F6A21",
"#X c #926A23",
"$X c #836D32",
"%X c #C57D00",
"&X c #8F801D",
"*X c #918B1E",
"=X c #BE8601",
"-X c #BA931E",
";X c #8F8122",
":X c #9B9023",
">X c #A58D2F",
",X c #B69622",
"<X c #B9AA24",
"1X c #BCB028",
"2X c #C28200",
"3X c #C38D02",
"4X c #CA8C07",
"5X c #C78C0C",
"6X c #C99604",
"7X c #C79815",
"8X c #C0A01A",
"9X c #CEB117",
"0X c #D1B110",
"qX c #577C81",
"wX c #587D82",
/* pixels */
"                                                                                                                                ",
"  9.9.9.u.-.9.9.9.9.9.9.9.9.9.9.9.%.&.9.9.9.@.!._.K.T.3   `.}.[.[.-.9.9.9.9.9.9.9.9.9.9.9.9.9.-.9.9.9.9.9.9.9.9.9.9.%.9.m 9.9.  ",
"  m m m m m T x T m m m m m m m m m m #.T x O.! P.K.I.3   `.P.P.J.#.m #.m m m m m m m #.m m m m m m m m m m x x m m m m T m m   ",
"  #.m m x x x x x x m m m m m m m m m m x %.O.! P.P.A.3   `.P.P.K.m m m m c m m n x x m m m c m m m m m m m x x m m m m x m m   ",
"  m m m c 5 7 7 7 7 r p 9 j f f d s s l #.m O.! P.P.I.3   `.P.P.P.x x c 5 7 7 7 7 7 7 7 7 7 3 i 9 p f f f 9 7 7 a f x x %.T x   ",
"  m m m 5 k %.%.%.%.m +.m m #.m T +.x T m m O.! P.P.A.$   `.P.P.J.x m 5 k %.%.%.#.#.#.#.#.#.#.T #.#.m +.T %.%.%.T +.#.T x +.T   ",
"  m m m 7 %.m m x m m #.m #.m x x #.x x -.%.O.! P.P.A.3   `.P.K.K.m m 7 %.x x x #.#.#.#.#.x T x m x #.m x x %.x x T x -.%.m x   ",
"  %.%.m 9 %.%.%.%.%.%.#.%.%.%.%.%.%.%.T ,.=.O.F._.T.D.3   {.T.T.T.%.m r %.%.%.%.#.#.#.#.%.#.%.T %.%.%.%.%.%.%.%.%.%.%.p.%.%.%.  ",
"  9.=.8.s -.-.-.-.-.-.-.-.-.-.-.9.8.=.=.f.p.:.E.[.[.Y.0 X <X[.].`.-.=.s -.-.-.=.-.*.-.-.=.-.-.*.-.*.-.=.-.=.=.=.*.-.-.l.-.=.=.  ",
"  #.#.m 9 %.m $.m %.m %.m %.T m #.#.#.m -.&.@.F.I.T.D.3   ].T.T.P.%.m r %.T T %.T %.T T T %.%.T T T T T T %.%.T T T T ,.T T %.  ",
"  u.9.9.k u.u.u.u.u.u.u.9.p.-.u.u.u.9.9.b.f.>./. X X`.0 X <X X[.[.2.-.%.u.u.9.u.9.,.,.2.9.9.9.9.2.2.u.u.,.,.9.p.,.,.-.M.u.u.2.  ",
"  9.9.9.f u.u.9.-.9.9.u.-.&.p.-.9.9.9.8.n.d.:.~.}.}._.$   <X X[.[.,.-.%.9.-.9.9.-.-.=.=.-.9.9.9.-.-.9.9.u.-.9.9.-.-.-.B.u.u.u.  ",
"  9.9.9.f u.9.9.9.9.9.-.-.2.-.9.9.9.9.9.v.s.:.~.}.}._.4   <X X[.[.-.-.,.u.s.3.s.z.d.c.c.c.z.p.9.-.9.9.9.9.9.9.9.9.9.9.b.u.9.9.  ",
"  9.9.9.f u.9.9.9.9.9.M l.b.9.9.9.9.9.=.B.x.*.~. X[._.e & <X[.[.[.,.2.-.u.z.d.c.n.z.M.M.N.b.s.p.-.u.9.9.9.9.9.9.9.9.-.C.p.9.u.  ",
"  9.9.8.s u.9.9.9.9.b i.s.-.-.9.9.9.9.8.N.z.:.~. X[.T.e X 1X}.[.[.;.>.:.:.:.:.:.*.*.*.*.*.=.s.f.p.-.9.9.9.9.9.9.9.9.-.V.p.9.9.  ",
"  9.9.9.c 9.9.9.9.v U d.9.9.9.9.9.9.9.=.N.z.:.~.}. X_.0 X ,X}.[.[. . .]  . . .]  . . . .{ 9.*.a.l.p.-.9.9.9.9.9.9.9.9.V.p.9.9.  ",
"  9.9.9.m p.9.u.4.K 5.,.u.8.9.9.9.9.9.&.N.z.:.~. X[._.4 X ,X}.[.[.|..X|.|.|.|.|.|..X.X.X[.W.r.*.p.z.u.9.9.9.9.9.9.9.=.V.p.9.9.  ",
"  9.9.9.&.-.9.-.4.P Y 8.8.8.8.8.=.8.=.-.V.z.:.~.}.}.[.0 o ,X}.}.[.[.[.[.[.[.[.[.[.[.[.[.}.%X/.9.-.p.z.u.8.=.8.=.4.=.p.wXp.9.9.  ",
"  9.9.9.9.u.d.f.l.q.h.n.x.b.z.N.N.N.M.V.N.u.:.R.|.[.'.4 X -X5X5X5X5X5X5X4X.X4X=X4X.X.X X[.[.[.{ ,.8.p.d.b.N.M.M.M.M.V.v.u.9.9.  ",
"  9.9.9.9.u.d.s.s.q.g.x.z.z.f.b.z.v.z.b.u.8.,.7.oX X'.r : R ^ ^ ^ ^ ^ ^ ^ S ^ A R N H .X}.|.%X[ >.9.9.p.z.b.v.v.v.v.v.9.9.9.9.  ",
"  9.9.9.9.p.p.,.6.Y 6.u.9.9.9.9.-.-.9.-.9.u.#.h.-X'.}.E 1 = = = * = = * X % o X   X   Z ).^.OXOX:.-.p.2.9.-.-.-.9.9.-.9.9.9.9.  ",
"  9.9.9.u.k k v f 8 e b M c %.#.%.%.T =.u.u.1.oX X[.[.[.J.G.H.H.G.H.G.G.! U.o.M l t   * g.[ [...:.p.U f k v M %.m m -.9.9.9.9.  ",
"  9.9.9.v c 4.&.U K L =.&.&.-.=.=.=.=.-.%.-.3. .[.[.[.[.|. X X X X X X X{.} @X;.p.m   ; p.u.^.+X1.M M &.&.) =.8.=.=.9.-.9.9.9.  ",
"  9.9.9.s 9.9.9.u.5._ u.9.9.u.9.p.&.=.=.&.9.-.-.`.|.}.[.[.[.[.[.[.[.[.}.[.OX| ~.:.l   < x.{ OX9.2.v M u.9.9.9.9.9.9.9.z.9.9.9.  ",
"  9.9.9.f u.9.u.6._ 9.u.9.9.9.9.%.2.2.%.m p.p.-.w...}..X.X.X.X X|..X|.|.|.|.OX0.2.m   < b.9.OX[ 1.v M u.u.9.9.9.9.9.9.v.9.9.9.  ",
"  9.9.9.f u.9.9.9.5._ u.9.9.u.$.d.d.&.m c.v.f.p.,.u.e.` r.r.r.r.r.r.r.r.e.{ .XW.,.l   < x.] +X9.p.v M 2.-.9.9.9.9.9.9.z.u.9.9.  ",
"  9.9.9.m 9.9.9.9.9.9.9.9.9.#.s.m.u.%.2.f.u.9.v.p.u.2.,.,.,.,.,.,.u.,.,.,.e.[.9.-.u   y B.&.OX[ 1.v b p.9.u.9.9.9.9.9.V.p.9.9.  ",
"  9.9.8.k u.9.u.u.6._ -.9.9.s.l.p.%.%.p.9.9.9.p.&.j f f f f f m m #.9.9.-.,.} ^.:.u   y qX{ W.8.,.b c =.9.9.9.9.9.9.9.v.u.9.9.  ",
"  9.9.9.m 9.9.9.9.9.9.9.9.9.u.9.9.9.9.9.9.9.9.9.-.-.-.9.8.8.=.9.9.-.9.9.-.e.`.u.-.u   y C.6.0.9.p.v 6.s.9.9.9.9.9.9.9.B.p.9.9.  ",
"  9.9.8.f u.9.9.9.9.9.9.9.9.u.9.9.9.9.9.9.9.9.9.9.9.-.u.9.9.9.9.9.9.9.z.-.9.0.u.-.u   u b.-.-.9.%.%.u.u.9.9.9.9.9.9.-.V.p.9.9.  ",
"  9.9.9.m 9.9.9.9.9.9.9.9.9.9.9.9.9.9.9.9.9.9.9.9.9.9.9.9.9.9.9.9.9.u.v.9.r.^.>.-.l + z B.4.9.%.c.p.M u.9.9.9.9.9.9.-.V.p.9.9.  ",
"  9.9.9.j u.9.9.9.9.9.9.9.9.9.9.9.9.9.9.9.9.9.9.9.9.9.9.9.9.9.9.9.9.9.v.9.9.9.u.-.u . n v.9.9.d.2.&.6.9.9.u.m M.s.9.9.V.p.9.9.  ",
"  9.9.9.f u.9.9.9.9.9.9.9.9.9.9.9.9.9.9.9.u.9.9.9.9.9.9.9.9.9.9.9.9.u.v.9.9.9.9.-.l @ u v.9.p.%.v.d.%.9.9.%.d.p.9.9.9.v.9.9.9.  ",
"  9.9.8.f u.9.9.9.9.9.9.9.9.9.9.9.9.u.9.8.9.=.9.9.9.9.9.9.9.9.9.9.9.p.V.-.9.0.-.u.x . n v.-.6.d.d.%.&.p.f a.s.9.9.9.9.V.p.9.9.  ",
"  9.9.6.k u.9.9.9.9.9.9.9.9.9.9.9.9.u.&.j f s $.9.9.9.9.9.9.9.9.9.9.p.C.-.r.R.>.-.l @ u v.*...OX,.%.=.b L 6.2.9.9.9.-.V.p.9.9.  ",
"  9.9.9.f u.9.9.9.9.9.9.9.9.9.9.-.u.#.j I Y $.m 9.p.s.p.p.p.p.p.p.p.n.B.-.9.0.9.q.m . n v.9.0.6.p.%.*._ Y 6.9.9.9.9.-.V.p.9.9.  ",
"  9.9.9.k u.9.9.9.9.9.9.9.9.9.9.u.-.d I Y 6.i.#.s.V.V.V.V.V.V.V.V.V.B.=.,.e.^.| /.+.$ n z.:.[ OX>.%.*._ 6.9.-.9.9.9.-.V.u.9.9.  ",
"  9.9.9.m 9.9.9.9.u.9.9.9.9.9.9.M.i.K I 4._ 8.2.v.,.=.=.=.-.=.*.r.*.=.,.-.,.} ^.u.m . n z.,.0.6.u.%.&.u._ 6.p.9.9.9.9.V.p.9.9.  ",
"  9.9.8.j u.9.u.9.9.9.9.9.9.9.m.b.n n U I 6.t.Z.k.r.e.r.r.e.` h.XX( r.r.e.{ ~.} /.+.$ d u.i.+X] 1.%.=._ 6.-.9.9.9.9.9.V.p.9.9.  ",
"  9.9.9.#.u.9.9.9.9.9.9.9.9.m.v.&.t.$Xh.j.X.8X6X|.|..X X X2X=X{.J _.|.|.|.].` W.;.m + h u.OXOXi.9.%.&.p.9.9.9.9.9.9.8.V.p.9.9.  ",
"  9.9.9.%.u.9.9.-.9.9.=.9.m.v.&.,.W.6X9X0X7X[.'.[.[.'..X=XQ.:X  S.}.[.[.}.[.+Xy.u.m $ g $X' +XW.1.%.=.u.9.9.9.9.9.=.9.C.p.9.9.  ",
"  9.9.9.u.9.p.s.z.z.f.f.b.v.=.,.| ].}.'.'.|. X.X=X=X6XE.:X  X : E [.}..X2X{.} #X1.m o / >X' %X[ :.u.9.p.s.p.s.z.f.f.n.N.p.9.9.  ",
"  9.9.9.9.u.z.v.B.N.B.B.v.=.9.:....X[.[.}.J.! W.@X;X>Xo X 1 : > & G S ! U.E Q o.$.i : F 4X|. X .:.u.-.s.f.f.n.B.N.N.B.9.9.9.9.  ",
"  9.9.9.9.9.9.9.9.=.-.-.9.9.9.:. .|.[. XK.+ X * * X * 1 : O : & -           X o & , 1 W  X[..X .:.9.9.9.9.u.-.-.8.9.8.9.9.9.9.  ",
"  9.9.9.u.M M b M =.&.&.=.9.u.:. ..X[.%Xe   q ~ A D ~ ~ A ~ A ~ A S S S S S S D A F W }.[.[..X..:.9.p.&.M b =.&.&.&.-.9.9.9.9.  ",
"  9.9.9.b k v U b &.%.%.=.9.9.>. . X[.|.C   F.2X2X.X.X.X=X.X%X.X.X%X2X.X.X%X=X.X%X.X.X}.[.[.}.{ ,.2.4.v v v M %.%.%.9.9.9.9.9.  ",
"  9.9.9.s -.u.p.u.u.p.u.9.u.p.:.[  X X}.N   H.=X[.[.[.[.[.[.[.[.}.[.[.[.[.[.[.[.[.[.[.[.}.%XW.9.,.4.v 4.p.2.p.9.u.p.9.s.9.9.9.  ",
"  9.9.8.d u.u.-.9.9.b &.9.d.f.:. .|.[..XZ   H..X[.[.|.|.|.|..X X.X.X.X|..X.X.X.X.X|..X|.[.W.r.1.&.v =.9.9.9.9.9.9.-.-.v.p.9.9.  ",
"  9.9.9.s u.u.9.8.L L -.s.p.f.:.[ .X}.'.w   ! =X[.}...]  .] ] ] ] ] ] ] ] ]  . .] ] [ [ { 9.,.&.v 8.u.9.9.9.9.9.9.9.-.v.9.9.9.  ",
"  9.9.9.n 9.9.u.=.c a.B.d.f.v.:. .|.}.'.w   (.3X[.|.0.:.:.1.1.1.1.1.1.1.1.1.1.1.1.>.>.1.<.,.-.M 4.u.9.9.9.9.9.9.9.u.-.B.p.9.9.  ",
"  9.9.-.c 9.u.9.8.,.v.z.u.v.N.*. . X[.'.Z X *X=X[.|.e.-.p.b v b v v k v c v v %.v %.%.%.%.%.%.-.u.9.9.9.9.9.-.u.9.9.-.n.p.9.9.  ",
"  9.9.9.b 9.9.9.9.u.p.8.=.v.M.*. .|. X'.N   *X3X'.|.e.,.b c M b M M U $.$.U M =.&.=.=.&.=.&.9.u.9.9.9.9.9.u.9.9.-.u.-.N.p.9.9.  ",
"  9.9.9.m 9.9.9.9.9.9.9.-.v.N.*. ..X}.'.Z X Q.=X[..Xe.,.s &.u.u.u.u.u.u.p.9.p.9.9.9.9.9.9.9.u.9.9.9.9.9.9.9.9.9.9.9.9.V.p.9.9.  ",
"  9.9.-.%.9.9.9.9.9.9.9.-.v.M.:.[ |.}.'.N   &X=X[.|.e.,.s 9.u.9.u.i.9.9.9.9.9.9.9.9.9.9.9.9.9.9.9.9.9.9.u.9.9.9.9.9.=.V.u.9.9.  ",
"  9.9.9.k 9.9.9.9.9.9.9.9.d.z.:. ..X XL.B X ! =X[.|.e.u.s 8.9.9.9.9.9.9.9.9.9.9.9.9.9.9.9.9.9.9.9.9.9.9.9.9.9.9.9.9.-.V.p.9.9.  ",
"  9.9.9.m 9.9.9.9.u.9.9.=.z.b.*. . X}.'.Z X E.=X[.|.e.,.M -.9.9.9.9.9.9.9.u.9.9.9.9.9.9.9.9.9.9.9.9.9.9.9.9.9.9.9.9.9.V.p.9.9.  ",
"  9.9.9.%.u.9.9.9.9.9.9.9.v.M.:. .|. XY.V % H..X[.|.e.u.m -.9.9.9.9.9.9.9.9.9.9.9.9.9.9.9.9.9.9.9.9.9.9.9.9.9.9.9.9.9.V.9.9.9.  ",
"  9.9.-.m 9.9.9.9.9.9.9.8.v.n.*.[ .X XL.6 X F. X[. Xe.-.m 9.9.9.-.u.9.9.9.9.9.9.9.9.9.9.9.9.9.9.9.9.9.9.9.9.9.9.9.9.=.V.p.9.9.  ",
"  9.9.9.-.-.-.9.-.-.-.=.u.N.N.*. .|.|.L.B X ! .X[.|.e.,.-.9.-.9.9.-.-.-.-.9.-.-.9.9.9.9.-.-.8.-.-.9.9.8.-.=.9.9.9.8.s.wXp.9.9.  ",
"  9.9.9.9.p.v.v.v.b.C.V.qXN.8.:. . X}.Y.6 X F. X[.|.e.-.9.9.c.v.v.v.v.b.V.V.V.V.B.b.N.b.C.V.V.V.V.V.V.V.V.V.V.V.V.V.qXs.9.9.9.  ",
"  9.9.9.9.9.u.u.u.u.p.u.u.u.9.:.[ .X XL.B % F. X[.|.e.,.9.-.p.p.u.u.u.u.u.p.u.p.u.u.u.u.u.p.p.p.u.u.p.p.p.p.p.u.p.u.p.9.9.9.9.  ",
"  9.9.u.u.9.9.9.u.9.9.9.u.9.9.:.[ |. XY.B = J. X}..Xe.-.9.-.9.9.9.9.9.9.u.9.9.9.9.9.u.i.9.9.9.9.9.9.9.9.9.9.9.9.9.9.9.9.9.9.9.  ",
"  f 7 7 7 7 8 9 s 9 a 9 f f f k e 8 8 2 O O O 7 $ # & O s : s f f f f s f f f a 9 a 9 k e p p r p 5 8 7 7 7 a 9 a 9 s f f f f   ",
"                                                                                                                                "
};
