/* XPM */
static char *result[] = {
/* columns rows colors chars-per-pixel */
"64 64 223 2 ",
"   c #000001",
".  c #0E0705",
"X  c #02030B",
"o  c #08060B",
"O  c #0C0D0C",
"+  c #130B05",
"@  c #180D0A",
"#  c #1D130B",
"$  c #171309",
"%  c #020413",
"&  c #080A11",
"*  c #090A1A",
"=  c #040918",
"-  c #100D13",
";  c #0F1112",
":  c #141113",
">  c #1A141A",
",  c #121B1D",
"<  c #1F1918",
"1  c #1B1613",
"2  c #23190A",
"3  c #2A1D0C",
"4  c #21120C",
"5  c #32140E",
"6  c #33180E",
"7  c #381B07",
"8  c #321812",
"9  c #351C19",
"0  c #311711",
"q  c #231A15",
"w  c #2D200F",
"e  c #3F2801",
"r  c #342201",
"t  c #34201E",
"y  c #372415",
"u  c #18282A",
"i  c #1B2525",
"p  c #242D2E",
"a  c #2C2A29",
"s  c #362121",
"d  c #3A262A",
"f  c #3A292D",
"g  c #362729",
"h  c #2D2D30",
"j  c #372C30",
"k  c #3A2B31",
"l  c #2D3333",
"z  c #2F3A3B",
"x  c #273738",
"c  c #343435",
"v  c #3C3235",
"b  c #3C363A",
"n  c #323C3D",
"m  c #3D3C3E",
"M  c #353837",
"N  c #38342C",
"B  c #452D04",
"V  c #452409",
"C  c #4B2A0B",
"Z  c #4C3406",
"A  c #493109",
"S  c #513707",
"D  c #52390A",
"F  c #5D3F0F",
"G  c #423110",
"H  c #5C3F12",
"J  c #603700",
"K  c #623D00",
"L  c #7E3700",
"P  c #4A3634",
"I  c #4E3D34",
"U  c #503F36",
"Y  c #452F2D",
"T  c #3B403F",
"R  c #5C4214",
"E  c #5B431C",
"W  c #764D00",
"Q  c #7A4D00",
"!  c #704600",
"~  c #7B5200",
"^  c #755107",
"/  c #604110",
"(  c #664C1F",
")  c #6F4F19",
"_  c #46413E",
"`  c #514037",
"'  c #5B543D",
"]  c #45412D",
"[  c #755F2D",
"{  c #785F2C",
"}  c #775D27",
"|  c #6C5B34",
" . c #655A3A",
".. c #685C3A",
"X. c #63573B",
"o. c #7F6226",
"O. c #7B602A",
"+. c #77612E",
"@. c #76653A",
"#. c #7A723E",
"$. c #1A3245",
"%. c #263946",
"&. c #2D3B44",
"*. c #273C48",
"=. c #333F40",
"-. c #3C3E40",
";. c #354142",
":. c #3B4345",
">. c #33434F",
",. c #3C4649",
"<. c #3E4A4C",
"1. c #2F485C",
"2. c #354653",
"3. c #364A56",
"4. c #3D4C52",
"5. c #374C59",
"6. c #394A56",
"7. c #3E5154",
"8. c #3B515B",
"9. c #434445",
"0. c #4E4F44",
"q. c #40474A",
"w. c #414C4E",
"e. c #494F4A",
"r. c #474944",
"t. c #4F5046",
"y. c #555342",
"u. c #595441",
"i. c #535848",
"p. c #424E50",
"a. c #484C52",
"s. c #435153",
"d. c #44565A",
"f. c #455A5C",
"g. c #495B5E",
"h. c #485150",
"j. c #505754",
"k. c #645E47",
"l. c #586751",
"z. c #666E5E",
"x. c #4A5E61",
"c. c #465E63",
"v. c #466365",
"b. c #4B6265",
"n. c #4D6569",
"m. c #4F696E",
"M. c #45606B",
"N. c #506A6F",
"B. c #4F6B70",
"V. c #516D72",
"C. c #4F737F",
"Z. c #537176",
"A. c #55767B",
"S. c #56787E",
"D. c #6E7E6C",
"F. c #8E4600",
"G. c #8E4A00",
"H. c #924C00",
"J. c #815601",
"K. c #825A05",
"L. c #8A5C02",
"P. c #855706",
"I. c #9E5700",
"U. c #945B00",
"Y. c #9C5D00",
"T. c #905700",
"R. c #815D11",
"E. c #A15B00",
"W. c #836102",
"Q. c #9B6100",
"!. c #9E6D0B",
"~. c #9F700B",
"^. c #8D6514",
"/. c #8B651D",
"(. c #8D6E1B",
"). c #946915",
"_. c #996B11",
"`. c #936A19",
"'. c #916610",
"]. c #98711F",
"[. c #8D7819",
"{. c #A26400",
"}. c #A26B01",
"|. c #AC6C00",
" X c #A67300",
".X c #AE7400",
"XX c #A87705",
"oX c #B27500",
"OX c #B87700",
"+X c #B57900",
"@X c #BA7A00",
"#X c #B87F0D",
"$X c #A67B1D",
"%X c #B17F17",
"&X c #836324",
"*X c #896521",
"=X c #8F6A21",
"-X c #836D32",
";X c #926A23",
":X c #C57D00",
">X c #8F801D",
",X c #918B1E",
"<X c #BC8200",
"1X c #BF8A03",
"2X c #B69E1E",
"3X c #BE881D",
"4X c #8F8122",
"5X c #978D22",
"6X c #9B9023",
"7X c #B69622",
"8X c #A58D2F",
"9X c #B9AA24",
"0X c #BCB028",
"qX c #C28200",
"wX c #C38D02",
"eX c #C78C0C",
"rX c #CA8C07",
"tX c #C99604",
"yX c #C79815",
"uX c #C0A01A",
"iX c #CEB117",
"pX c #D1B110",
"aX c #000000",
/* pixels */
"                              aXaXaXaXaXaXaXaXaXaXaXaXaXaXaXaXaXaXaXaXaXaXaXaXaXaX                                              ",
"w.w.w.w.;.;.p.p.p.*.'.Q.U.Q.2 aXaXaXaXaXaXaXaXaXaXaXaXaXaXaXaXaXaXaXaXaXaXaXaXaXaX  }..X.X X4.p.w.w.w.w.w.4.w.w.w.w.s.<.w.w.w.w.",
"n n n n T z T &.T %.~ U.U.Y.2 aXaXaXaXaXaXaXaXaXaXaXaXaXaXaXaXaXaXaXaXaXaXaXaXaXaX  }.U.U.T.z z n =.n n ;.z n n n n n n n n n n ",
"n n n n n z z z z %.~ U.U.H.# aXaXaXaXaXaXaXaXaXaXaXaXaXaXaXaXaXaXaXaXaXaXaXaXaXaX  }.Y.U.U.=.=.z z M M M z M z M n M z n n n n ",
"k f f f f d M ;.n %.~ U.U.Y.2 aXaXaXaXaXaXaXaXaXaXaXaXaXaXaXaXaXaXaXaXaXaXaXaXaXaX  }.U.U.U.&.n M 5 0 0 0 0 0 0 0 0 0 0 s t 9 k ",
"n n &.=.T n z T n %.~ Y.U.F.# aXaXaXaXaXaXaXaXaXaXaXaXaXaXaXaXaXaXaXaXaXaXaXaXaXaX  }.U.U.L.n z 5 v ;.=.&.;.;.;.;.;.;.;.n ;.;.&.",
"n n n n z z z <.;.%.~ U.U.G.# aXaXaXaXaXaXaXaXaXaXaXaXaXaXaXaXaXaXaXaXaXaXaXaXaXaX  }.U.U.T.=.M 0 =.z =.n z ;.z z z n n n z n n ",
";.;.;.;.;.;.;.<.,.*.J.Q.Q.H.2 aXaXaXaXaXaXaXaXaXaXaXaXaXaXaXaXaXaXaXaXaXaXaXaXaXaX  XXQ.Q.U.;.n 9 ;.;.;.;.;.;.;.;.;.;.;.;.;.;.;.",
"<.<.<.<.<.<.,.g.s.2.'..X.XY.w aXaXaXaXaXaXaXaXaXaXaXaXaXaXaXaXaXaXaXaXaXaXaXaXaXaXX 2X.X X|.<.,.g <.<.,.,.,.<.,.<.<.<.<.<.<.<.<.",
"n =.n ;.;.n n <.:.%.~ Y.Q.G.2 aXaXaXaXaXaXaXaXaXaXaXaXaXaXaXaXaXaXaXaXaXaXaXaXaXaX   XQ.U.Q.;.z t ;.;.T ;.T ;.T ;.;.n ;.n ;.T n ",
"p.w.p.p.w.w.q.n.g.3.`.+X+X{.y aXaXaXaXaXaXaXaXaXaXaXaXaXaXaXaXaXaXaXaXaXaXaXaXaXaXX 0X+XoX.Xp.<.;.p.w.w.4.p.w.w.<.s.w.w.p.p.<.p.",
"q.w.w.w.w.w.q.m.f.2.`.oXoX{.# aXaXaXaXaXaXaXaXaXaXaXaXaXaXaXaXaXaXaXaXaXaXaXaXaXaX  9X+XoX X4.w.;.<.w.<.<.<.<.<.,.<.<.w.w.w.p.<.",
"s.w.w.w.w.w.w.b.d.3.).oXoX{.w aXaXaXaXaXaXaXaXaXaXaXaXaXaXaXaXaXaXaXaXaXaXaXaXaXaX  9XoXXX X<.p.s.w.d.d.d.g.d.b.b.b.x.p.<.w.w.w.",
"n.<.w.w.w.w.q.Z.b.2.).oXoXQ.y aXaXaXaXaXaXaXaXaXaXaXaXaXaXaXaXaXaXaXaXaXaXaXaXaXaX& 9X+XoX X<.w.w.p.g.g.b.m.b.Z.m.V.n.g.s.<.w.w.",
"<.<.w.w.w.w.,.Z.x.2.).oXoX{.y aXaXaXaXaXaXaXaXaXaXaXaXaXaXaXaXaXaXaXaXaXaXaXaXaXaXo 9X+X.X X3.3.3.2.3.>.2.>.>.>.>.>.,.s.g.s.w.w.",
"w.w.w.w.w.w.,.B.f.2.).oXoX{.w aXaXaXaXaXaXaXaXaXaXaXaXaXaXaXaXaXaXaXaXaXaXaXaXaXaXX 7XoX.X.X+.+.[ [ +.+.[ [ +.[ O.| w.,.d.f.p.w.",
"w.w.w.w.w.w.,.N.x.2.).oXoXY.3 aXaXaXaXaXaXaXaXaXaXaXaXaXaXaXaXaXaXaXaXaXaXaXaXaXaXX 7XoX.X.X@X@X@XOXOX@X@X@XOX@XOX.X/.u.2.d.g.w.",
"q.<.q.,.q.,.w.A.c.2.`.oX.XoXw aXaXaXaXaXaXaXaXaXaXaXaXaXaXaXaXaXaXaXaXaXaXaXaXaXaXX 7XoX X.X.X.X X.X.XoX.X.X.X.X.XoX@X`.w.q.s.x.",
"n.b.V.m.N.m.Z.N.s.2.!.oX.X|.w aXaXaXaXaXaXaXaXaXaXaXaXaXaXaXaXaXaXaXaXaXaXaXaXaXaXX 3XeXeXeXeXeXeXwX:XwX<XrX:X<X.X.X.X.X| 4.w.s.",
"g.g.n.b.b.b.n.s.<.p.0.$X+X|.t aXaXaXaXaXaXaXaXaXaXaXaXaXaXaXaXaXaXaXaXaXaXaXaXaXaX: ( ( ( ( ( ( ( ( S ( Z R B K @X@XoX:XO.6.w.q.",
"<.<.<.<.w.<.<.<.p.&.@.%XoXoXQ aXaXaXaXaXaXaXaXaXaXaXaXaXaXaXaXaXaXaXaXaXaXaXaXaXaX< * * * * * * = % % X o   X   A ].).&X&X3.w.w.",
"b ;.T ;.;.T <.w.p.5.$XoX.X.XoXL.P.K.K.K.K.K.K.J.^ $.:.c a aXaXaXaXaXaXaXaXaXaXaXaXaXaXaXaXaXaXaXaXaXaXaXaXaXaX  = j.O..XO.2.s.m ",
":.,.<.,.<.,.w.;.,.8.+. X.X.XoX+X+X@X+X+X@XoX@XXX .=X1.s.z aXaXaXaXaXaXaXaXaXaXaXaXaXaXaXaXaXaXaXaXaXaXaXaXaXaX  ; s.w._.*X3.m m ",
"w.w.w.w.:.,.,.:.<.w.4.}.@XoX.X.X.X.X.X.X.XoXoX X&X .`.2.l aXaXaXaXaXaXaXaXaXaXaXaXaXaXaXaXaXaXaXaXaXaXaXaXaXaX  , M.| &Xw.p.v m ",
"w.w.w.:.4.4.;.T 7.s.<.t.o.oX@X+X@XoX@X@X@XOX@XOXOX&Xe.p.n aXaXaXaXaXaXaXaXaXaXaXaXaXaXaXaXaXaXaXaXaXaXaXaXaXaX  , n.r.&X[ 3.v P ",
"w.s.T f.v.:.T v.c.f.7.4.w.' u.u.u.u.u.u.u.u.u.y.| OX/.3.l aXaXaXaXaXaXaXaXaXaXaXaXaXaXaXaXaXaXaXaXaXaXaXaXaXaX  , M.| *Xw.4.b :.",
"w.T 8.N.p.T 7.g.7.p.x.s.<.7.4.<.4.p.4.4.4.4.4.4.u..Xw.<.p aXaXaXaXaXaXaXaXaXaXaXaXaXaXaXaXaXaXaXaXaXaXaXaXaXaX  u Z.,.&XO.3.v -.",
"w.d.g.s.;.:.p.p.w.<.s.:.v f f f f f n n n w.w.w.<.' _.2.p aXaXaXaXaXaXaXaXaXaXaXaXaXaXaXaXaXaXaXaXaXaXaXaXaXaX  u C.[ /.w.4.b j ",
"w.p.p.<.w.<.w.w.w.w.w.<.q.w.<.<.w.q.<.<.<.w.<.4.y.~.w.<.p aXaXaXaXaXaXaXaXaXaXaXaXaXaXaXaXaXaXaXaXaXaXaXaXaXaX  u A.r.e.w.s.v q.",
"w.w.w.w.w.w.w.w.w.w.w.w.w.w.w.w.w.w.w.w.w.p.x.<.w.e.s.<.p aXaXaXaXaXaXaXaXaXaXaXaXaXaXaXaXaXaXaXaXaXaXaXaXaXaX  p n.w.<.s.;.:.w.",
"w.w.w.w.w.w.p.w.w.w.w.w.w.w.w.w.w.w.w.w.w.p.b.<.y.!.3.<.l aXaXaXaXaXaXaXaXaXaXaXaXaXaXaXaXaXaXaXaXaXaXaXaXaXaX+ x Z.,.w.T v.a.b ",
"w.w.w.w.w.w.w.w.w.w.w.w.w.w.w.w.w.w.w.w.w.p.b.w.w.e.w.<.p aXaXaXaXaXaXaXaXaXaXaXaXaXaXaXaXaXaXaXaXaXaXaXaXaXaX. M b.<.<.g.7.:.w.",
"w.<.w.w.w.w.w.w.w.w.w.w.<.w.w.w.w.w.w.w.w.p.b.w.<.p.p.<.l aXaXaXaXaXaXaXaXaXaXaXaXaXaXaXaXaXaXaXaXaXaXaXaXaXaX@ p b.w.p.=.b.g.:.",
"w.p.w.w.w.w.w.w.w.w.p.w.w.w.w.w.w.w.w.w.w.p.S.<.w.e.<.p.n aXaXaXaXaXaXaXaXaXaXaXaXaXaXaXaXaXaXaXaXaXaXaXaXaXaX. n b.q.w.g.d.=.;.",
"p.w.w.w.w.p.;.j f s :.p.w.w.w.w.w.w.w.w.w.s.S.,.u.!.3.<.l aXaXaXaXaXaXaXaXaXaXaXaXaXaXaXaXaXaXaXaXaXaXaXaXaXaX@ p b.2.&Xo.3.:.,.",
"w.w.w.w.p.;.j P U -.z <.s.s.s.s.s.p.s.s.s.m.Z.q.p.e.p.t.n aXaXaXaXaXaXaXaXaXaXaXaXaXaXaXaXaXaXaXaXaXaXaXaXaXaX. M x.w.e.e.7.;.:.",
"w.w.w.s.<.j Y I r.p.-.f.A.S.A.S.S.A.A.C.S.Z.,.<.y._.X.`.&.aXaXaXaXaXaXaXaXaXaXaXaXaXaXaXaXaXaXaXaXaXaXaXaXaXaX# c b.2.O.o.3.;.,.",
"w.<.p.B.a.Y I r._ 9.8.c.4.,.,.,.,.,.,.i.,.,.4.4.4. ._.e.n aXaXaXaXaXaXaXaXaXaXaXaXaXaXaXaXaXaXaXaXaXaXaXaXaXaX. M b.<.e.e.4.;.:.",
"<.p.B.b.P M _ P r.i.D.z.u.u.u.u.y.y.k.#X] u.u.y. .).X.`.&.aXaXaXaXaXaXaXaXaXaXaXaXaXaXaXaXaXaXaXaXaXaXaXaXaXaX4 a 7.w.*X+.4.;.,.",
"w.B.b.:.i.-Xk.l.@.uXtX@XoX@X+X+XqXrX}.L {.OX@X@X XX.*X1.M aXaXaXaXaXaXaXaXaXaXaXaXaXaXaXaXaXaXaXaXaXaXaXaXaXaXO h h.&X&X<.7.;.:.",
"m.b.:.4.R.tXiXpXyXoX|..X.X|.<X1X).6X  G.oX.X.XoX.X*Xt.s.-.aXaXaXaXaXaXaXaXaXaXaXaXaXaXaXaXaXaXaXaXaXaXaXaXaXaX# N -X{ *X/.3.,.,.",
"b.,.4...XX|.|.|.oX+X@X<X1XtX^.6XX   1 ! oX.X@X<XXX..=X5.z aXaXaXaXaXaXaXaXaXaXaXaXaXaXaXaXaXaXaXaXaXaXaXaXaXaXX ) 8X{ :X{ 2.p.w.",
"q.w.2.O.@X.XoXoXL.~ /.;X4X8X. X < : < & J J ~ R.Q ^ $.m a aXaXaXaXaXaXaXaXaXaXaXaXaXaXaXaXaXaXaXaXaXaXaXaXaXaX> H rXOXOX{ 2.w.w.",
"w.w.2.O.@X.X@XT.aXaXaXaXaXaXaXaXaXaXaXaXaXaXaXaXaXaXaXaXaXaXaXaXaXaX+ X = % X % > : & : & :           X o - > q ! OX.XOX{ 2.w.w.",
"p.p.2.O.oX.XqXG aXaXaXaXaXaXaXaXaXaXaXaXaXaXaXaXaXaXaXaXaXaXaXaXaXaX  r / S / / / D / D / S D D D D D D / S R ~ oX.X.X@XO.2.w.p.",
"w.w.2.{ @XoXoXB aXaXaXaXaXaXaXaXaXaXaXaXaXaXaXaXaXaXaXaXaXaXaXaXaXaX  J.qX@X@X@X@X@X@X@X<X@X@X:X@XqXqX@X@X@X@X@X.X.XoX X| 4.p.9.",
"a.d.2.{ oXoXOXB aXaXaXaXaXaXaXaXaXaXaXaXaXaXaXaXaXaXaXaXaXaXaXaXaXaX  K.<X.X.XoXoX.X.X.XoX.X.X.X.X.XoX.XoX.X.X.X.XoX:X`.p.p.:.v ",
"f.g.2.{ @XoXOXA aXaXaXaXaXaXaXaXaXaXaXaXaXaXaXaXaXaXaXaXaXaXaXaXaXaX  K.<XoX.XoX@X@X@X@X@XOX@XOX@XOX@X@XOXOX@XOX@X.X/.u.5.9.k q.",
"s.g.2.{ OXoX|.e aXaXaXaXaXaXaXaXaXaXaXaXaXaXaXaXaXaXaXaXaXaXaXaXaXaX  ~ @XoXoXO.[ [ [ [ [ +.+.+.[ [ [ [ +.[ [ [ { | w.6.9.v q.w.",
"g.n.>.{ @XoX|.B aXaXaXaXaXaXaXaXaXaXaXaXaXaXaXaXaXaXaXaXaXaXaXaXaXaX  [.1X.X@X0.3.2.5.5.3.5.3.6.3.5.5.5.6.6.3.6.3.6.4.<.m ,.w.w.",
"b.V.>.O.OXoX|.B aXaXaXaXaXaXaXaXaXaXaXaXaXaXaXaXaXaXaXaXaXaXaXaXaXaX  5X1X.XOXy.4.p.b v v v v v v b v b n b ;.;.;.;.;.;.<.p.w.w.",
"b.N.>.O.OXoX|.B aXaXaXaXaXaXaXaXaXaXaXaXaXaXaXaXaXaXaXaXaXaXaXaXaXaX  ,X1X.XOXy.4.b l :.P m T m -.-.P -.:.-.,.,.,.,.:.<.p.w.w.w.",
"b.V.>.O.OXoX|.A aXaXaXaXaXaXaXaXaXaXaXaXaXaXaXaXaXaXaXaXaXaXaXaXaXaXX (.<X.X@Xy.p.d ,.w.p.p.p.p.p.p.p.p.w.p.p.p.w.w.s.w.w.w.w.w.",
"b.V.>.O.@X+X|.B aXaXaXaXaXaXaXaXaXaXaXaXaXaXaXaXaXaXaXaXaXaXaXaXaXaX  >X1X.XoXy.4.k w.w.p.<.w.w.w.w.w.w.w.w.w.w.w.w.w.w.w.w.w.w.",
"g.x.2.{ oX+XE.V aXaXaXaXaXaXaXaXaXaXaXaXaXaXaXaXaXaXaXaXaXaXaXaXaXaXX W.@X.XOXy.p.d q.w.w.p.w.w.w.w.w.w.w.w.w.<.w.w.w.w.w.w.w.w.",
"x.n.2.{ @XoX|.A aXaXaXaXaXaXaXaXaXaXaXaXaXaXaXaXaXaXaXaXaXaXaXaXaXaXX /.@X.XOXy.p.n w.w.w.w.w.w.w.w.w.p.w.w.w.p.w.w.w.w.w.w.w.w.",
"b.B.>.O.@XoXE.C aXaXaXaXaXaXaXaXaXaXaXaXaXaXaXaXaXaXaXaXaXaXaXaXaXaX% K.+X.XOXy.4.;.<.p.w.w.w.w.w.w.w.w.w.w.w.w.w.w.w.w.w.w.w.w.",
"b.B.>.O.+X+XI.7 aXaXaXaXaXaXaXaXaXaXaXaXaXaXaXaXaXaXaXaXaXaXaXaXaXaXX J.+XoXoXy.<.T <.<.w.w.w.w.w.w.w.w.w.w.w.w.w.w.w.w.w.w.w.w.",
"Z.B.2.{ @X+XI.V aXaXaXaXaXaXaXaXaXaXaXaXaXaXaXaXaXaXaXaXaXaXaXaXaXaX% ~ +X.XOXy.4.<.w.w.<.<.w.<.q.<.<.<.<.q.w.w.w.<.<.<.w.q.<.<.",
"N.<.2.O.@XoXE.7 aXaXaXaXaXaXaXaXaXaXaXaXaXaXaXaXaXaXaXaXaXaXaXaXaXaXX J.+XoXOXy.<.w.q.b.b.b.b.b.n.S.A.S.S.Z.n.Z.n.S.A.S.A.A.A.A.",
"p.w.2.{ @X+XI.V aXaXaXaXaXaXaXaXaXaXaXaXaXaXaXaXaXaXaXaXaXaXaXaXaXaX% J.+X.XOXy.<.w.w.p.p.p.p.w.w.s.s.s.h.a.p.p.p.s.s.s.s.s.s.h.",
"w.w.2.O.@X+XI.V aXaXaXaXaXaXaXaXaXaXaXaXaXaXaXaXaXaXaXaXaXaXaXaXaXaX* L.@X.X@Xy.<.w.4.w.w.w.w.w.w.w.w.w.w.w.p.w.w.w.w.w.w.w.w.w.",
"f f k t 6 7 4 O aXaXaXaXaXaXaXaXaXaXaXaXaXaXaXaXaXaXaXaXaXaXaXaXaXaXO O 5 # ; O O f ; f f f f f f f f f s 9 d 9 k t 9 s t s 5 0 ",
"                aXaXaXaXaXaXaXaXaXaXaXaXaXaXaXaXaXaXaXaXaXaXaXaXaXaX                                                            "
};
