/* XPM */
static char *result[] = {
/* columns rows colors chars-per-pixel */
"64 64 37 1 ",
"  c black",
". c #170606",
"X c #200707",
"o c #2E0E0F",
"O c #29160C",
"+ c #271810",
"@ c #221914",
"# c #2D1B13",
"$ c #3C1313",
"% c #321F14",
"& c #3E1A15",
"* c #2E221C",
"= c #2E271F",
"- c #3B2D1D",
"; c #3B2921",
": c #451816",
"> c #491C19",
", c #4D1C1A",
"< c #4D1F1D",
"1 c #472019",
"2 c #58221F",
"3 c #5B231E",
"4 c #463124",
"5 c #44392D",
"6 c #612723",
"7 c #68312E",
"8 c #74362A",
"9 c #693433",
"0 c #713633",
"q c #7E3C34",
"w c #4F4133",
"e c #4F4233",
"r c #594939",
"t c #584F3D",
"y c #68563A",
"u c #7E6C50",
"i c #844241",
/* pixels */
"trrrertrrrrrerrrwrrrrerr5trrrrertrrrertrrrrrerrrwrrrrerr5trrrrer",
"5rrwrrr5rwrwrrwwr55rrrwrrrrrrr5t5rrwrrr5rwrwrrwwr55rrrwrrrrrrr5t",
"rerwtrrrwrwtrrrrrertrwrwtwrrrewrrerw5rrrwrwtrrrrrertrwrwtwrrrewr",
"rrw5rrwtrwrrrrrrrrrrwrw5wer5trrrrrw5rrwtrwrrrrrrrrrrwrw5wer5trrr",
"rrrrrrwrrrtrrwrrrwr5rrrrrtrrwrtrrrrrrrwrrrtrrwrrrwr5rrrrrtrrwrtr",
"rrrtewrrrwrrrrrterrrrwtrwrrrrwrrrrrtewrrrwrrrrrterrrrwtrwrrrrwrr",
"rr55wrrrwrerrrwrrerrrrw5rrrrwre5rr55wrrrwrerrrwrrerrrrw5rrrrwre5",
"trrwretwrwrrtwrwrrr5rwrrrrrwrrrrtrrwretwrwrrtwrwrrr5rwrrrrrwrrrr",
"rrerwrrr5rrewr5rrrrrwwerrtw5errrrrerwrrr5rrewr5rrrrrwwerrtw5errr",
"rrrerrrerrrwwwrt5rrwtwrrrrrwrrr5rrrerrrerrrwwwrt5rrwtwrrrrrwrrr5",
"5rwterrr5rrrwrrrrrerwwrr5rwertwr5rwterrr5rrrwrrrrrerwwrr5rwertwr",
"rwtwrrrrtrrwtw5rr5rwrrrrrwrerr5rrwtwrwrrtrrwtw5rr5rwrrrrrwrerr5r",
"wrrrrrrrrrwewerrrrrwrretrwrrrrrr5rrrwtrrrrwewerrrrrwrretrwrrrrrr",
"rrtrrr5rrw5wwrtwrrrrrrrrrrrrrrr5yrt5yr5rrw5wwrtwrrrrrrrrrrrrrrrw",
"rw5rrrtrwrtrrrrerwrrr5rrrwrwrr-urw5yrrtrwrtrrrrerwrrr5rrr5rrrewr",
"rrrrwerwrrrrrrrrwrrtrrwrrw5--=r-5-r-=--=wrrrrrrrwrrtrrwrrwtwrrtr",
"trrtrrrrrr5rrrr5rer5rwtew%*#####+++++#+#5r5rrrr5rer5rwterrwrerwr",
"rrwr5rrrrrtrrrwrrtrrwrrr5#o6688333333$$$$rtrrrwrrtrrwtrrrwwrrrrr",
"r5rt5rrr5wrrrertrwtwrrwr-+6<,,,3<<,,,<,:Xyrrrertrwt5trwrrrwwwrrr",
"wrwrtwrtwrrrwrrrrrwrrw5-=#6,,,3<,,,,<,,,ourrwrrrrr5twrrr5rrwrtrr",
"5rerrrrwerrwrrerewrrw=+#X+6,,6,,<2$$$:,:Xurwrrere5ywrwrrr5wrr5re",
"rrrtrrwrwrerrrrrwrrr5+,:X#:,,2$$,$:$,,::Xyrrrrrr5ywtrrrrrw5twrrr",
"5rwr5wrwwwrrtrrtrwrw-#,$X#:$$$$:,,$,$:,$X=5rrrr-urrrrertrrrrwerr",
"rrrrerwetrrwrrw5-==-=oXXoO$XXXooooooooXXo*==-5=r55--rrrrwrrwrrre",
"rrrwwtrwwrrrrw%++#+##++;#*;******;*;;*4*4;*+++######=5rrwrwrwtwr",
"rwrrwrrrrerrr5%o33333$3>ooo$$o4686666$,,33,:$$;3q66:$o5w5erwww5r",
"rtrwrrrerrrer-#3<:::::,3:o$$: ;7<,,,,,,,<,<,:X*:,,,::,+5wewtwrrr",
"rr5twrrrtrr5r-%3::,:::::::$:$ 46,,3,,,,,,,,,,o;,:,:<,:oyrwrwrrre",
"rrrrrwrwrrtwr5+o:$::::$::o$:$X;6<,,,,,,$$$:,:X;,<<:<::$urr5rrtrr",
"rrtrwrwrrwwrw5#o$:$:$:::$o:$: ;:,,,,,,::$,,::X4:<:<::$ourwrrwrer",
"rerrrtrrrrrer-+oo$:$:$::$o$$o ;$:,$$$,$$,$:,$X;$::::oo5y5errrrrr",
"rrerwrrrrr5rw=;o   XXXXXXX   X4oXoXoooXooooXXo4o X XX=urtrwrrrwr",
"trrrertrrrrrr55*;*;444;4;;;;;;;;*;****;;;;;*****;*;**5yrrwtrrrer",
"5rrwrrr5rwrwrrwr=uyw;6i90033:773,:$$;6i988333333,:$*4ywr5trrrr5t",
"rerwtrrrwrwtrrr-uer5#q<,,,3<7<,,:,:X*q<,,,3<<,,,<,:X;ur5trrrrewr",
"rrw5rrwtrwrrrr5urrr-+6,,,3<,<,,,,:,o;6,,,3<,,,,<,,,o4u5yrer5trrr",
"rrrrrrwrrrtrr5yrrwr=#$:,,,2$,,,,,,,X*6,,6,,<2$$$:,:X*5yrrtrrwrtr",
"rrrtewrrrwrrwtrterr-#:,,2$$$,,,,,,:X;:,,2$$,$:$,,::X*ytrwrrrrwrr",
"rr55wrrrwrewtrwrrer=#:$$$$$:,,$$,,$X;:$$$$:,,$,$:,$X*uw5rrrrwre5",
"trrwretwrwrrtwrrw-=@% XXXoXo  XooXXo4$XXXooooooooXXo*yrrrrrwrrrr",
"rrerwrrr5rrewrrw%++#+;;*4*4;****;;;;;;;*****;*;;**;*5yerrtw5errr",
"rrrerrrerrrwwwr5%686666$,,33,:$$;6iqq766>>$$$::14=5wuwrrrrrwrrr5",
"5rwterrr5rrrwrr=#7<,,,,,,,<,<,:X*8333,,36,,$:,$X45uywwrr5rwertwr",
"rwtwrrrrtrrwtwr-%6,,3,,,,,,,,,,o;3,3,<3,,,,,,,$X;urwrrrrrwrerr5r",
"wrrrrrrrrrwewer5#6<,,,,,,$$$:,:X;3<<,<,,,,,:,,:X*urwrretrwrrrrrr",
"rrtrrr5rrw5wwrr5#:,,,,,,::$,,::X4,<,<,,:,,:,,,,o*yrrrrrrrrrrrrrw",
"rw5rrrtrwrtrrrw=#$:,$$$,$$,$:,$X;:,,,,$,,,,,,,,X*yrrr5rrr5rrrewr",
"rrrrwerwrrrrrrr5;$XoXoooXooooXXo4&XoXooXo.ooXX o5yrtrrwrrwtwrrtr",
"trrtrrrrrr5rrrrw55*;****;;;;;*****;*;**4;4;;;;;5uer5rwterrwrerwr",
"rrwr5rrrrrtrrrwrrtryyyyyyyyr=yuy-uyuyyyyuyuuuuuyrtrrwrrrrwwrrrrr",
"r5rt5rrr5wrrrertrwtwrrwrrrw-urr5y5rt5rrr5wrrrertrwtwrrwrrrwwwrrr",
"wrwrtwrtwrrrwrrrrrwwwrrr5r5urt5ywrwrtwrtwrrrwrrrrrwwwrrr5rrwrtrr",
"5rerrrrwerrwrrerewrwrwrrr5yrr5te5rerrrrwerrwrrerewrwrwrrr5wrr5re",
"rrrtrrwrwrerrrrrwrwtrrrrwt5twtrrrrrtrrwrwrerrrrrwrwtrrrrrw5twrrr",
"5rwr5wrwwwrrtrrtr5rrrerwtrrrwerr5rwr5wrwwwrrtrrtr5rrrertrrrrwerr",
"rrrrerwetrrwr5wwrrrrrrrrwrrwrrrerrrrerwetrrwr5wwrrrrrrrrwrrwrrre",
"rrrwwtrwwrrrrrrrerrtrrrrwrwrwtwrrrrwwtrwwrrrrrrrerrtrrrrwrwrwtwr",
"rwrrwrrrrerrrwrrrrwrrerw5erwww5rrwrrwrrrrerrrwrrrrwrrerw5erwww5r",
"rtrwrrrerrrerrrrrrtwrrwrwewtwrrrrtrwrrrerrrerrrrrrtwrrwrwewtwrrr",
"rr5twrrrtrr5rrwtrrrrrt5wrwrwrrrerr5twrrrtrr5rrwtrrrrrt5wrwrwrrre",
"rrrrrwrwrrtwrerrrrrrrrtrrr5rrtrrrrrrrwrwrrtwrerrrrrrrrtrrr5rrtrr",
"rrtrwrwrrwwrwrrwtrrrewrwrwrrwrerrrtrwrwrrwwrwrrwtrrrewrwrwrrwrer",
"rerrrtrrrrrerrrrrrwtrerr5errrrrrrerrrtrrrrrerrrrrrwtrerr5errrrrr",
"rrerwrrrrr5rrtr5rwrrrrertrrrrrwrrrerwrrrrr5rrtr5rwrrrrertrrrrrwr"
};
