/* XPM */
static char *result[] = {
/* columns rows colors chars-per-pixel */
"64 64 37 1 ",
"  c black",
". c #170606",
"X c #200707",
"o c #2E0E0F",
"O c #271810",
"+ c #221914",
"@ c #2D1B13",
"# c #3C1313",
"$ c #321F14",
"% c #3E1A15",
"& c #2E221C",
"* c #2E271F",
"= c #36261B",
"- c #3B2D1D",
"; c #3B2921",
": c #451816",
"> c #491C19",
", c #4D1C1A",
"< c #4D1F1D",
"1 c #472019",
"2 c #58221F",
"3 c #5B231E",
"4 c #463124",
"5 c #44392D",
"6 c #612723",
"7 c #68312E",
"8 c #74362A",
"9 c #693433",
"0 c #713633",
"q c #7E3C34",
"w c #4F4133",
"e c #4F4233",
"r c #594939",
"t c #584F3D",
"y c #68563A",
"u c #7E6C50",
"i c #844241",
/* pixels */
"trrrertrrrrrerrrwrrrrerr5trrw55;;&;&&&&;;;;;&&&&&;&;&&4;4;;;;;;;",
"5rrwrrr5rwrwrrwwr55rrrwrrrrrrrtry-uy=;6i988333333,:#&4;6iq666:77",
"rerwtrrrwrwtrrrrrertrwrwtwrrrewr5yrw5&q<,,,3<<,,,<,:X;48<,,,37<,",
"rrw5rrwtrwrrrrrrrrrrwrw5wer5trr5yrw5-;6,,,3<,,,,<,,,o467,,,<<<,,",
"rrrrrrwrrrtrrwrrrwr5rrrrrtrrwr5tr5wr*O6,,6,,<2###:,:X&,:,,,2#,,,",
"rrrtewrrrwrrrrrterrrrwtrwrrrrwtrrrrr-@:,,2##,#:#,,::X&:,:,,##,,,",
"rr55wrrrwrerrrwrrerrrrw5rrrrwre5rrer*@:####:,,#,#:,#X&#:,,:oo,,#",
"trrwretwrwrrtwrwrrr5rwrrrrrwrrrw5--*+$#XXXooooooooXXo&#XoXXXoooo",
"rrerwrrr5rrewr5rrrrrwwerrtw5erw$@@@@@@&&&&&;&;;&&;&;;;;;;;;&;;;&",
"rrrerrrerrrwwwrt5rrwtwrrrrrwrr5@o3qq766>>###::446i877673333,:##4",
"5rwterrr5rrrwrrrrrerwwrr5rwert-O3333,,36,,#:,#X48,,6<,<<,,,<,:X;",
"rwtwrrrrtrrwtw5rr5rwrrrrrwrerr-@3,3,<3,,,,,,,#X;::,:,,,,,,<,,,o4",
"wrrrrrrrrrwewerrrrrwrretrwr5wr*@3<<,<,,,,,:,,:X&#,:,,,,2###:,:X&",
"rrtrrr5rrw5wwrtwrrrrrrrrrrrrrr-$,<,<,,:,,:,,,,o&#:,:,,,#:#,,::X;",
"rw5rrrtrwrtrrrrerwrrr5rrr5rrer*@:,,,,#,,,,,,,,X&##:,:,,,#,#:,#X&",
"rrrrwerwrrrrrrrrwrrtrrwrrw5--*+$;XoXooXo.ooXX o&#XXXoXooooooXXo;",
"trrtrrrrrr5rrrr5rer5rwtew$O@@@@@&&&&&;&;&&4;4;;;;;;;;&;;44;4;;;;",
"rrwr5rrrrrtrrrwrrtrrwrrr5@o3988333333,:##4;6iq666:773,:##4:q666,",
"r5rt5rrr5wrrrertrwtwrrwr-O3<,,,3<<,,,<,:X;48<,,,37<,,:,:X;6<::::",
"wrwrtwrtwrrrwrrrrrwwwrrr-@6,,,3<,,,,<,,,o467,,,<<<,,,,:,o;3::::<",
"5rerrrrwerrwrrerewrwrwr-rO6,,6,,<2###:,:X&,:,,,2#,,,,,,,X;o#:::,",
"rrrtrrwrwrerrrrrwrwtrr5y5@:,,2##,#:#,,::X&:,:,,##,,,,,,:X;#::::o",
"5rwr5wrwwwrrtrrtr5rrr5yt*@:####:,,#,#:,#X&#:,,:oo,,##,,#X;#oo:#X",
"rrrrerwetrrwr5wwrrrr5trr5;#XXXooooooooXXo&XXoXXXooooooXXo4o     ",
"rrrwwtrwwrrrrrrrerrwtrrrw55&&&&&&;&;;&4&4;&&&&;;;;;;;&&&&&;&;;&&",
"rwrrwrrrrerrrwrrrrwrrerwrrtuyw;686666#,,33,:##;3q66733>>ooo##o46",
"rtrwrrrerrrerrrrrrtwrrwrwewer5@7<,,,,,,,<,<,:X&:,,,::,3::o#:o 48",
"rr5twrrrtrr5rrwtrrrrrt5wrwrrr-$6,,3,,,,,,,,,,o;,:,:<,:::::::o ;:",
"rrrrrwrwrrtwrerrrrrrrrtrrr5wr*@6<,,,,,,###:,:X;,<<:<:::::#::# &#",
"rrtrwrwrrwwrwrrwtrrrewrwrwrrr-@:,,,,,,::#,,::X4:<:<::#::#::::X&#",
"rerrrtrrrrrerrrrrrwtrerr5erer*@#:,###,##,#:,#X;#::::o:::::::: &#",
"rrerwrrrrr5rrtr5rwrrw5-**-*-*+$oXoXoooXooooXXo4o X XX X.XX   X&#",
"trrrertrrrrrerrrwrrw$$@$@@@@@@@;&;&&&&;;;;;&&&&&;&;&&4;4;;;;;;;;",
"5rrwrrr5rwrwrrwwr555$o390033:773,:##;6i988333333,:#&4;6iq666:773",
"rerwtrrrwrwtrrrrrer-@3<,,,3<7<,,:,:X&q<,,,3<<,,,<,:X;48<,,,37<,,",
"rrw5rrwtrwrrrrrrrrr-O6,,,3<,<,,,,:,o;6,,,3<,,,,<,,,o467,,,<<<,,,",
"rrrrrrwrrrtrrwrrrwr5@#:,,,2#,,,,,,,X&6,,6,,<2###:,:X&,:,,,2#,,,,",
"rrrtewrrrwrrrrrterr5@:,,2###,,,,,,:X;:,,2##,#:#,,::X&:,:,,##,,,,",
"rr55wrrrwrerrrwrrer*@:#####:,,##,,#X;:####:,,#,#:,#X&#:,,:oo,,##",
"trrwretwrwrrtwrwrrr5; XXXoXo  XooXXo4#XXXooooooooXXo&#XoXXXooooo",
"rrerwrrr5rrewr5rrrrw55;&4&4;&&&&;;;;;;;&&&&&;&;;&&;&;;;;;;;;&;;;",
"rrrerrrerrrwwwrt5rrrrt*uuuyuyyr5;6iqq766>>###::146i877673333,:##",
"5rwterrr5rrrwrrrrrerw-ur5rwertwr&8333,,36,,#:,#X48,,6<,<<,,,<,:X",
"rwtwrrrrtrrwtw5rr5rw5urrrwrerr5r;3,3,<3,,,,,,,#X;::,:,,,,,,<,,,o",
"wrrrrrrrrrwewerrrrr5yretrwrrrrr5@3<<,<,,,,,:,,:X&#,:,,,,2###:,:X",
"rrtrrr5rrw5wwrtwrrwtrrrrrrrrrrr5$,<,<,,:,,:,,,,o&#:,:,,,#:#,,::X",
"rw5rrrtrwrtrrrrerwtrr5rrr5rrrew*@:,,,,#,,,,,,,,X&##:,:,,,#,#:,#X",
"rrrrwerwrrrrrrrrwrrtrrwrrwtwrr-u;%XoXooXo.ooXX o&#XXXoXooooooXXo",
"trrtrrrrrr5rrrr5rer5rwterrwre5uw55;&;&&4;4;;;;;;;;&;;44;4;;;;&&&",
"rrwr5rrrrrtrrrwrrtrrwrrrrwwr5yrrrt-uyw;63q6333#77,:#oo48i9003306",
"r5rt5rrr5wrrrertrwtwrrwrrrwwtrrrr5yer5@4:<:::,7<::#:# ;q<,,,,36,",
"wrwrtwrtwrrrwrrrrrwwwrrr5rwtrtrr5ywrr-$37:::<<<::::#:X;6,,,,<<,,",
"5rerrrrwerrwrrerewrwrwrrr5wrr5r5trewr*O:#:::,o::::::: ;#:,,,2#,,",
"rrrtrrwrwrerrrrrwrwtrrrrrw5twrwtrrrrr-O#:#::oo::::::# ;:,,,,##,,",
"5rwr5wrwwwrrtrrtr5rrrertrrrrwerr5rwer*Oo#::#XX::oo::o ;:##,:oo,,",
"rrrrerwetrrwr5wwrrrrrrrrwrrwrw5---*-*+O  X   XXXXXX  X4#XXXXXooo",
"rrrwwtrwwrrrrrrrerrtrrrrwrwrw$OO@O@@OO@;&;&&&&&&;&;;&4&4;&&&&;;;",
"rwrrwrrrrerrrwrrrrwrrerw5erw5$o36666#6>###::#43:3333o::,,:#oo;6i",
"rtrwrrrerrrerrrrrrtwrrwrwewt-@3<,,,,,36,#::,X;7<:::::::<:<:# &83",
"rr5twrrrtrr5rrwtrrrrrt5wrwrw-$6,,3,,,,,,,:,:X43::,::::::::::X;3,",
"rrrrrwrwrrtwrerrrrrrrrtrrr5r-O#,:,,,,:,,#:,:o;3<::::::ooo#:# ;3<",
"rrtrwrwrrwwrwrrwtrrrewrwrwrr5@#:,:,:,,,:#,:,X;#::::::##o::## 4,<",
"rerrrtrrrrrerrrrrrwtrerr5eer*O##:,:,:,,:#::#X;o#:ooo:oo:o#:o ;:,",
"rrerwrrrrr5rrtr5rwrrrrertrrr5;#XXXoooooooXX o4X X XXX XXXX  X4#X"
};
