/* XPM */
static char *_aa15bdef0844467f2af42035161d125ztXBmb9cINR8VgFK[] = {
/* columns rows colors chars-per-pixel */
"64 64 174 2 ",
"   c None",
".  c #0A0908",
"X  c gray4",
"o  c #0F0A08",
"O  c #0F0D0C",
"+  c gray6",
"@  c #170606",
"#  c #110D0A",
"$  c #130D0A",
"%  c #160F0C",
"&  c #19120D",
"*  c #001A15",
"=  c #001D17",
"-  c #131312",
";  c #161312",
":  c #141617",
">  c #141717",
",  c #171716",
"<  c #1A1310",
"1  c #1B1917",
"2  c #1D1815",
"3  c #1B1B1A",
"4  c #1D1A19",
"5  c #1E1C18",
"6  c #1D1C1A",
"7  c #211713",
"8  c #211813",
"9  c #261D12",
"0  c #271B14",
"q  c #2A1D17",
"w  c #221D1A",
"e  c #271D18",
"r  c #002115",
"t  c #0D2610",
"y  c #0E2711",
"u  c #0F2711",
"i  c #0A2A11",
"p  c #0A2B12",
"a  c #0F2A13",
"s  c #0F2A14",
"d  c #00221C",
"f  c #062919",
"g  c #072E1B",
"h  c #102911",
"j  c #112C14",
"k  c #122D15",
"l  c #132E16",
"z  c #132E17",
"x  c #0F371D",
"c  c #1B3313",
"v  c #1C3413",
"b  c #1C3414",
"n  c #1D3414",
"m  c #1E3514",
"M  c #1D3615",
"N  c #1D3716",
"B  c #183814",
"V  c #1F3817",
"C  c #103D1F",
"Z  c #21201E",
"A  c #28221F",
"S  c #2E221C",
"D  c #322219",
"F  c #32221C",
"G  c #3B291E",
"H  c #3B2D1D",
"J  c #203A18",
"K  c #213A19",
"L  c #213B19",
"P  c #253F1D",
"I  c #002922",
"U  c #1F2324",
"Y  c #003422",
"T  c #083721",
"R  c #252220",
"E  c #252321",
"W  c #252623",
"Q  c #292623",
"!  c #2C2821",
"~  c #2C2A22",
"^  c #2E2B25",
"/  c #2E2C26",
"(  c #2C2A28",
")  c #282C2C",
"_  c #3B2921",
"`  c #332F28",
"'  c #32312E",
"]  c #2F3535",
"[  c #383531",
"{  c #393633",
"}  c #383B36",
"|  c #463124",
" . c #433D39",
".. c #413E38",
"X. c #433F3C",
"o. c #2C4615",
"O. c #234915",
"+. c #2C4818",
"@. c #2D4918",
"#. c #2E4918",
"$. c #2F4A19",
"%. c #2F4B1B",
"&. c #304918",
"*. c #314A19",
"=. c #314C1B",
"-. c #314C1C",
";. c #324F1D",
":. c #334F1D",
">. c #315216",
",. c #3B5112",
"<. c #3D5212",
"1. c #3D5213",
"2. c #3E5313",
"3. c #3E5416",
"4. c #3D5913",
"5. c #33501E",
"6. c #35511E",
"7. c #36511F",
"8. c #316A1F",
"9. c #094227",
"0. c #16582E",
"q. c #375422",
"w. c #385522",
"e. c #405313",
"r. c #415616",
"t. c #425817",
"y. c #435818",
"u. c #435918",
"i. c #455A18",
"p. c #455B19",
"a. c #4C7C11",
"s. c #434034",
"d. c #47443B",
"f. c #42433D",
"g. c #49443E",
"h. c #4F483B",
"j. c #383F40",
"k. c #5F2F4A",
"l. c #6E2F40",
"z. c #494943",
"x. c #4D4A44",
"c. c #4F4C48",
"v. c #534D42",
"b. c #534D44",
"n. c #565040",
"m. c #57524C",
"M. c #5B5548",
"N. c #58584D",
"B. c #565851",
"V. c #5B5952",
"C. c #595D5A",
"Z. c #66604E",
"A. c #6C6657",
"S. c #67625C",
"D. c #79735E",
"F. c #666A62",
"G. c #756F64",
"H. c #73746F",
"J. c #7C7D73",
"K. c #BA3A66",
"L. c #807B6A",
"P. c #FF9C15",
"I. c #FFD711",
"U. c #868473",
"Y. c #993AA8",
"T. c #FF4398",
"R. c #FF73B8",
"E. c #BE43FF",
"W. c #F373FF",
"Q. c #888C86",
"!. c #89928C",
"~. c #93968B",
"^. c #9F9F8B",
"/. c #A1A9A3",
/* pixels */
"_ S _ _ | | _ | _ _ _ _ S S S S F _ S _ | | | _ | _ _ _ _ _ _ _ _ F _ F S S S _ _ _ _ _ F F S S S _ S _ S S | _ | _ _ _ _ _ _ _ ",
"D.S.V.c.c.| L./.!.L.L.D.D.L.L.L.G.S.V.c.c.| ~./.!.L.L.G.D.V.L.L.D.S.V.c.c._ J./.!.~.~.D.D.D.D.D.D.S.V.c.S | _ L./.^.L.L.L.V.L.L.",
"S.V.S.V.A _ ^.F.S.S.S.S.D.L.S.S.S.V.S.V.A _ ^.F.S.S.S.G.F.L.F.S.S.V.S.V.A S ^.S.S.S.S.G.F.F.S.S.S.F.{ V.A _ | ~.F.S.S.S.D.L.F.S.",
"S.S.V.S.9.9.9.{ S.S.S.F.F.S.S.S.S.S.V.S.q.Q L.S.S.S.L.F.S.F.S.S.S.S.V.S.q._ L.S.S.S.G.F.S.S.S.S.} 8.0.{ j.| L.d.S.S.S.F.F.F.S.S.",
"S.S.S.9.9.9.I ' { S.S.G.c.S.S.S.S.S.S.S.9.H H V.S.S.S.G.c.S.S.S.S.S.S.S.E F L.S.S.L.S.S.F.G.c.c.^ 0.0.' A 9.9.9.{ S.S.G.c.S.S.S.",
"S.S.S.0.9.I Y H 9.{ S.c.c.S.S.S.S.S.S.0.0.0.I E S.G.c.c.c.S.S.S.S.S.S.V.E _ C.S.S.G.c.c.S.c.V.` { I 0.H H I 9.9.9.{ S.c.c.S.S.S.",
"c.S.S.( ; 7 I 0.0.0.V.j.j.S.S.c.c.l.R.l.0.I H 3 Q ( c.c.V.S.S.c.c.S.S.c.E _ V.k.c.c.c.V.S.S.) 9.9.k.W.k.; # I 9.0.{ V.j.j.S.S.c.",
"j.j.A A j.0 k.E.8.8.8.A j.j.j.j.j.R.I.T.: & X H G G T 2 j.3 3 E j.j.E E j.| c.W A A j.j.j.U 0.0.0.W.I.E.U < ( ; U A A A j.j.j.j.",
"S S _ S E.Y.P.Y.H 8.a.7 S S 9.9._ l.T.l.9.Y 0.0.0.I H 9.9.< S _ _ _ _ _ | _ q F F F A _ < 8.8.8.Y k.E.k._ _ _ _ _ _ _ S _ _ _ S ",
"L.~.L.L.k.P.I.P.k.6 6 ( V.0.0.0.I 3 * f 0.^ 8.0.I E I H 0.0.U _ L./.^.^.L.L.L.V.m.c.c.c.' a.8.T H 9 f ^ L.L.L.D.D.D.D.S.V.c.c.| ",
"L.F.S.S. .Y.P.Y.E.{ ( V.' 8.k.W.l.U ' R ' ' ' ' Z W Z I H 8.Y < ~.D.G.D.S.S.G.L.S.S.c.V.S.( O < I 0.0.0.} S.F.F.S.S.S.F.S.V.A _ ",
"L.S.S.D.S.E.k.f f 9.{ ' { Z W.I.E.' ' { V.V.V.V.' ' ' 0.0.0.I 7 D.S.D.S.F.G.S.S.S.S.S.S.S.c.; 7 w I 0.8.{ S.S.S.S.S.F.S.S.S.j.| ",
"x.S.V.S.S.E f 9.9.I H H 9.9.k.E.l.F.C.B.V.V.V.V.j.j.8.8.8.Y H 8 s.} F.S.F.S.S.S.S.S.V.S.S.V.A S ( H R l.R.l.S.G.c.c.c.V.S.V.A S ",
"c.V.S.V.S.V.0.9.I Z 9.I 0.0.x o w V.B.B.V.V.V.c.c.j.a.8.9.3 9.H 9.9.l.T.S.S.C.S.S.V.S.S.S.S.j.< 9.9.H R.I.T.S.c.V.c.S.S.V.V.A _ ",
"c.c.V.S.V.S.' E E 0.0.0.I 0.8.7 j.c.V.} j.j.V.j.} V.U ( R 0.0.I T.K.P.K.S.c.S.S.S.S.S.S.S.S.; 0.0.0.I l.T.l.H 9.9.{ c.V.S.c.A S ",
"c.S E E j.j.j.U 8.8.8.Y O X U | j.3 E 4 Q E E 3 Q A A E O 0.    l.P.I.P.l.q.E j.@ j.j.A A 4 U 8.0.I 0.x x * I H 0.0.U j.A A j._ ",
"S S S S S _ S _ a.8.9.% 0 7 _ _ _ _ _ _ _ S _ S                   K.P.K.T.              | _ _ 7 7 % 8.0.d # & Y 8.8.8.9 _ G G _ ",
"S.L.D.D.S.V.c.j.c.0 d.C.!.L.L.D.D.V.L.L.D.S.V.c.c.                T.l.f               L./.^.L.L.J.' d.^ ^ E H 3 9.8.a.N.J.L.L.S.",
"S.D.V.V.V.c.V.c.3 _ ^.F.S.S.S.D.F.L.F.S.S.V.S.V.A               0.x x I 0.0.          ~.F.S.S.S.D.L.S.{ E 9.9.H O & d.} V.V.V.V.",
"F.V.V.V.V.V.c.V.A S L.S.S.S.D.F.S.F.S.V.S.S.V.S.j.              8.0.I H   0.        L.L.S.S.S.F.F.F.S.{ { I 0.0.0.8 D.V.V.V.V.F.",
"j.V.V.V.V.V.V.V.3 _ c.V.S.S.S.G.c.S.c.L.S.S.S.S.A                     H 9.H         S.V.S.S.S.G.m.[ H H 9.9.I 0.8.7 j.c.V.V.V.S.",
"j.V.V.V.V.V.V.c.3 _ V.S.S.G.c.c.c.j.L.S.S.S.S.V.A                   0.0.0.I H H 9.9.V.S.V.S.S.c.( H I 0.0.0.E Z ; _ c.V.V.V.V.} ",
"A V.V.j.j.V.V.j.3 _ V.c.c.c.c.c.j.^.S.c.c.S.S.c.A                 8.8.8.Y   0.0.0.I H V.S.S.V.j.9.k.9.I 0.8.{ ( E _ c.j.j.V.c.E ",
"A A A A A E 3 3 A | c.A A A j.S L.3 3 A j.j.A A                   a.8.9.    8.0.I   H 9.9.A A 0.E.W.k.E.> U A A j.| j.3 3 3 3 3 ",
"_ F _ _ _ _ _ _ _ _ S _ _                                                           I 0.0.0.H 8.k.I.P.E.l.S S S F F _ S _ _ S S ",
"/.~.L.L.L.L.D.D.D.D.S.V.c.c.Y Y Y                                                     I 0.8.9.k.W.P.P.k.z.D.V.V.j.j.j.c.c.j.| J.",
"S.S.L.F.S.F.F.S.S.S.F.S.V.A I 9.9.9.                                                    9.H Y r E.k.E.E.B.S.D.V.V.j.c.V.j.3 | ~.",
"V.S.V.S.S.S.S.S.S.F.S.S.S.l.R.l.9.9.                                                  0.0.0.I 9.f f k.f.S.V.V.V.V.V.V.V.j.3 _ N.",
"S.V.S.S.S.S.G.c.c.c.V.S.V.R.I.T.                                                    8.8.8.Y   I 9.9.  D.V.V.V.V.V.c.V.V.c.3 F c.",
"V.S.V.S.S.S.c.V.c.S.S.V.V.l.T.l.H                                             Y Y Y a.8.H             D.V.c.V.V.c.V.V.V.V.A S c.",
"c.V.S.V.S.S.S.c.S.c.V.S.c.x x x I Y Y Y                                     9.9.9.I H 9.                j.V.V.V.V.V.V.V.V.3 S c.",
"A A A j.A j.j.j.j.j.j.A ; 8.0.I 9.I 9.9.9.k.W.k.                            9.9.I H                     A 3 A @ A A 3 3 3 A S c.",
"S _ _ | | _ | _ _ _ _ S S         9.I 9.9.W.I.E.9.9.9._     9.9.9.            Y H 9.                        _ | _ _ _ _ _ _ _ _ ",
"S.V.c.c.| D.^.L.L.L.S.S.L.D.s.E 0.0.0.I H k.E.k.0.0.0.  _ 0.0.0.Y Y Y         I 0.0.0.                      L./.^.L.L.L.V.L.L.D.",
"V.S.V.A _ L.F.V.V.V.V.S.D.V.' 8.8.8.Y X 9.x =   Y 8.8.8.  8.0.I I 9.9.9.  9.9.H Y 8.8.8.                  | ~.F.S.S.S.D.L.F.S.S.",
"S.V.S.j._ D.V.V.V.V.F.F.V.V.' a.8.9.Z ; 0.0.I     9.8.a.        9.I 9.9.0.0.0.I   9.8.a.                  L.L.S.S.S.F.F.F.S.S.S.",
"S.S.S.A _ j.c.V.V.V.S.j.V.V.V.' ' ' ' O   8.                  0.0.0.I   8.0.I                             S.V.S.S.S.G.c.S.S.S.S.",
"S.S.V.A _ c.V.V.V.V.j.j.V.V.V.V.V.V.c.6                       8.0.I H     H 9.9.                          V.S.V.S.F.c.c.S.S.S.S.",
"S.S.c.A _ c.j.j.V.c.A A V.V.j.j.V.V.j.6                             H   l.R.l.0.0.                        c.V.F.S.V.} j.S.S.c.c.",
"j.A A j.| j.3 3 3 3 3 A A A A A E 6 6                               9.9.R.I.T.0.8.                        c.Q } A A Q j.j.j.j.j.",
"S S S _ S _ _ S F _ _ S _ S S                                     0.0.0.l.T.l.                              _ _ _ _ _ _ F _ _ _ ",
"| L.~.L.L.L.L.c.L.V.c.c.c.V.V.c.                                8.8.8.Y   U c.L.C.F V.c.c.V.V.j.  L./.~.L.L.L.L.D.D.D.D.S.V.c.c.",
"_ L.F.S.S.S.S.S.G.L.S.c.V.V.S.A                                 a.8.9.Y Y Y C.S.j.L.S.c.V.S.c.A | ~.S.S.L.F.S.F.F.S.S.S.F.S.V.A ",
"| L.S.S.D.S.S.S.S.S.S.S.V.S.V.A                               Y Y Y   I 9.T T q.^.S.S.S.S.S.c.A _ V.V.S.V.S.S.S.S.S.S.F.S.S.S.j.",
"S c.S.V.S.S.S.S.B.S.S.c.V.S.C.q.                            9.9.9.k.9.9.I 9.T L.S.S.S.V.S.S.V.A F c.S.V.S.S.S.S.G.c.c.c.V.S.V.A ",
"_ c.V.S.V.S.V.S.S.S.V.c.S.C.S.A                             9.9.E.W.k.E.0.' J.V.S.S.V.S.S.S.F.} S c.V.S.V.S.S.S.c.V.c.S.S.V.V.A ",
"S c.c.V.S.V.S.V.S.S.C.k.V.V.c.E                                 k.I.P.E.k.{ x.S.S.S.S.S.S.S.S.Q S c.c.V.S.V.S.S.S.c.S.c.V.S.c.A ",
"_ c.A A A j.j.j.j.j.j.j.A A 3 j.                              l.W.P.P.k.X U W E j.@ j.j.E E 3 j.S b.A E A j.A j.j.j.j.j.j.A A j.",
"S S _ S _ | | | _ | _ _ _ _ _                                   E.k.E.E.9.9.9.q _ | _ _ _ _ _ _ _ G S G _ | | _ | _ _ _ _ S S S ",
"L.D.S.V.c.V.| L./.!.L.L.D.D.V.L.L.D.S.V.c.c.  L./.!.~.~.D.D.D.D.^ x k.x I 0.0.0...^.L.D.D.D.c.L.J.S.V.c.j.j.| ~./.!.L.L.D.D.L.L.",
"S.S.V.S.V.A _ ^.F.S.S.S.D.F.L.F.S.S.V.S.V.E F ^.F.S.S.S.D.F.F.S.{ 8.C I w Y 8.8.8.} V.V.V.S.L.F.V.V.c.V.c.3 _ ^.F.S.S.S.S.D.L.S.",
"S.S.S.V.S.j.S L.S.S.S.D.F.S.F.S.S.S.S.V.S.j._ L.S.S.S.D.F.S.S.S.S.} E E E _ 9.8.a.` V.V.F.F.F.V.V.V.V.c.V.A _ L.S.S.S.S.F.F.S.S.",
"S.S.S.S.S.A _ c.C.S.S.S.G.c.S.S.S.S.S.S.S.E S L.S.S.L.S.S.F.G.c.x.c.' E H H 9.w 3 ' V.V.F.j.V.V.V.V.V.V.V.3 _ c.V.S.S.S.G.c.S.S.",
"S.S.S.S.V.A _ V.S.S.G.c.c.c.S.S.S.S.S.S.V.E _ V.S.S.G.c.c.S.c.V.c.9.9.9.I 0.0.0.' c.V.V.j.} V.V.V.V.V.V.c.3 _ V.S.S.S.S.c.c.S.S.",
"c.c.S.S.c.3 _ V.k.c.c.c.c.V.m.S.c.c.S.S.b.E _ V.c.c.c.c.V.S.S.c.0.0.0.I 3 I 0.8.( V.V.c.w A V.V.j.j.V.V.j.3 _ V.c.c.S.V.j.j.S.S.",
"j.j.j.w 3 j.G c.E W U q.A V , 3 A j.j.A A j.| x.A A A j.j.Y Y Y 8.0.I Y Y Y < + 3 E 3 2., A A A A A A 3 3 A | c.A A A A A j.j.] ",
"q F _ q S S 7 S Q _ F _ q ,.e _ S _ _ _ _ _ _ _ _ S _ _ 9.9.9.I 9.# % I 9.9.9._ S _ S 2.c S S S _ S _ _ S | w | _ S S S S _ &.F ",
"w.U.M.i.M.V. .[ X.c.V.V.[ e.M.Q.J.L.L.L.L.D.D.D.D.S.V.c.T 9.I 0.0.0.&.` d 9.T c.X.s.} q.{ F D.x.D.D.Z.D.} V.x.g.S.V.c.] j.q q.H.",
"7.h.:.y.h.L.:.g.X.:.S.X.2 e.P m.:.L.F.m.F.B.S.S.m.x.S.V.2 e.9.Y 8.O.4.Q m.D.A.y.[ c. .y.2 &.L.z.c.t. .V.X.V.x.q.V.B.V. .; 7 q.h.",
"p.c :.i.z.N.:.y.m.g.K X.2 &.j x.g.;.S.m.:.g.p.g.B.;.g.V f x 9.2 g O.>.a m.g.m.;.V x.g.;.2 &.Z...x.t. .c.} x.s.5. .x...;.2 J i.z.",
"p.z K y.K m.z.r. .:.:.x.2 u K z...;.j g.y.v.;.V [ %.5.T 0.T I 3 +.Q m j g. .g.y.V  .y.5.) N 5.x...;...J  .t.) +.) ;. .;.; 2.p.K ",
"K 5.K :.K :.g.J g.K y.z e.+.h J z.V :.g.y.j t.V g.g.L 8.0.= Y Y p  .K j g.;.g.j m z.y.V +.q V s.t.;.....;.r.[ 3.V j [ r.o.m :.z ",
":.z :.-.K j z.K ;.j y.z <.u -.j ;.K ;.V y.j V l { V 6./ O H I 9.p B j z.j K 5.j 3.;.j ;.c q N 3.;.a 3.m j 3.s t.m s j 3.u h ;.z ",
"j c s -.u u o.s m u c +.j c j u +.a m a %.V s a %.m a A W H ( I p B s V j +.a ;.2.u u +.s m u t @.t +.a <.t a +.a +.c +.c m j u "
};
