/* XPM */
static char *result[] = {
/* columns rows colors chars-per-pixel */
"64 64 40 1 ",
"  c #070607",
". c #080608",
"X c #090608",
"o c #090609",
"O c #0C0C0B",
"+ c #31160F",
"@ c #201618",
"# c #321813",
"$ c #321914",
"% c #3A272B",
"& c #392D2B",
"* c #3B292E",
"= c #3D2A2C",
"- c #3D2A2D",
"; c #3E363B",
": c #323D3E",
"> c #333E3F",
", c #3E3E3E",
"< c #483532",
"1 c #4E3D35",
"2 c #4E3D36",
"3 c #4E3E36",
"4 c #4C3F38",
"5 c #49433F",
"6 c #3F4244",
"7 c #3E494A",
"8 c #444747",
"9 c #404649",
"0 c #41494B",
"q c #444A4B",
"w c #404B4D",
"e c #414B4D",
"r c #414C4E",
"t c #434F51",
"y c #445052",
"u c #465B5D",
"i c #4B6265",
"p c #4F696E",
"a c #567A7F",
"s c #000000",
/* pixels */
"%a:rr1rr%a:r:rrr%sssssssssssssssssssssssssssir:r:rrOa:rrrrr+a:rr",
"%irr1rrr%ar:rrrr+sssssssssssssssssssssssssssi:rrrrr%irrrrrr%irr1",
"+arrrrrr%a:rrrrr+sssssssssssssssssssssssssssirrrrrrOarrrrrr+arrr",
"%arra:rr%arra:rr+sssssssssssssssssssssssssssir1a:rrOarra:rr%arra",
"+ar%::rr%ar%::rr+sssssssssssssssssssssssssssar%::rrOar%::rr%ar%:",
"%ar%%rr1%ar%%rrr+sssssssssssssssssssssssssssir%%1rrOar%%rrr%ar%%",
"Oarr1r1r%arrrrrr+sssssssssssssssssssssssssssarr11rr%irrrrrr%arr1",
"%ar1r1rr%ar:rrrr%sssssssssssssssssssssssssssirr11rrOarrrrrr%ar1r",
"Oa:11rrr+a:rrrrr+sssssssssssssssssssssssssssa:rr1rr%irrrrrr%a:11",
"%ar1rrrr%irrrrrr%sssssssssssssssssssssssssssirr1rrr%arrrrrr%ar1r",
"Oarrrrrr+arrrrrr+sssssssssssssssssssssssssssarrrrrr%irrrrrr+arrr",
"Oarra:rr%arra:rr%sssssssssssssssssssssssssssarra:rr%arra:rr%arra",
"Oar%::rr%ar%::rr%sssssssssssssssssssssssssssar%::rr%ir%::rr+ar%:",
"Oar%%rrr+ar%%rr:%sssssssssssssssssssssssssssar%%rr1%ar%%rrr%ar%%",
"%arrrr::%irrrr:r%sssssssssssssssssssssssssssarr1r1r%irrr:r:Oarrr",
"Oarrr::r+arrr:r:%sssssssssssssssssssssssssssar1r1rr%ir::r:r%arrr",
"%a:r:rrr%arr:r:r%sssssssssssssssssssssssssssa:11rrr+ir:r:rrOa:r:",
"%ar:rrrr+ar:rrrr+sssssssssssssssssssssssssssar1rrrr%i:rrrrr%ar:r",
"%a:rrrrr+arrrrrr+sssssssssssssssssssssssssssarrrrrr+irrrrrrOa:rr",
"%arra:rr+arra:rr+sssssssssssssssssssssssssssarra:rr%ir1a:rrOarra",
"%ar%::rr+ar%::rr+sssssssssssssssssssssssssssar%::rr%ar%::rrOar%:",
"%ar%%rrr+ar%%rrr+sssssssssssssssssssssssssssar%%rrr+ir%%1rrOar%%",
"%arrrrrr+arrrrrr+sssssssssssssssssssssssssssarrrr::%arr11rr%arrr",
"%ar:rrrr%ar:rrrrrtrsssssssssssssssssssssssssssrr::r+irr11rrOar:r",
"+a:rrrrr+a:rrrrrrrrrssssssssssssssssssssssssssswrrr%a:rr1rr%a:rr",
"%irrrrrr%irrrrrrrrrrrsssssssssssssssssssssssssssrrr+irr1rrr%irrr",
"+arrrrrr+prrrq54245qrrsssssssssssssssssssssssssssrr+arrrrrr%arrr",
"%arra:rr*yrr831111138rrsssssssssssssssssssssssssssr$arra:rr%arra",
"%ar%::rr;rrq31<-%-<13qrrsssssssssssssssssssssssssss&ar%::rr%ar%:",
"+ar%%rr:6rr51<%%%%%<15rrsssssssssssssssssssssssssss,ar%%rr1%ar%%",
"%irrrr:r0rr41-%@o@%-14rrsssssssssssssssssssssssssss9arr1r1r%irrr",
"+arrr:r:err21%%. o%%12rrsssssssssssssssssssssssssssear1r1rr%arrr",
"%arr:r:r0rr41-%@X@%-14rrsssssssssssssssssssssssssss9a:11rrr+arr:",
"+ar:rrrr,rr51<%%%%%<15rrsssssssssssssssssssssssssss6ar1rrrr%ar:r",
"+arrrrrr&rrq31<=%=<13qrrsssssssssssssssssssssssssss&arrrrrr+arrr",
"+arra:rr#yrr831111138rrrsssssssssssssssssssssssssss*arra:rr%arra",
"+ar%::rr+urrrq54245qrrrsssssssssssssssssssssssssssr%ar%::rr%ar%:",
"+ar%%rrr+arrrrrrrrrrrrsssssssssssssssssssssssssssr:%ar%%rrr+ar%%",
"+arrrrrr+irrrrrrrrrrrsssssssssssssssssssssssssssr:r%arrrr::%arrr",
"%ar:rrrr%ir:>r7rrtrrsssssssssssssssssssssssssssr:r:%arrr::r+ar:r",
"+a:rrrrr+ir:r:rrOsssssssssssssssssssssssssssarr:r:r%a:r:rrr%a:rr",
"%irrrrrr%i:rrrrr%sssssssssssssssssssssssssssar:rrrr+ar:rrrr+irrr",
"+arrrrrr+irrrrrrOsssssssssssssssssssssssssssarrrrrr+a:rrrrr+arrr",
"%arra:rr%ir1a:rrOsssssssssssssssssssssssssssarra:rr+arra:rr+arra",
"%ar%::rr%ar%::rrOsssssssssssssssssssssssssssar%::rr+ar%::rr+ar%:",
"%ar%%rrr%ir%%1rrOsssssssssssssssssssssssssssar%%rrr+ar%%rrr+ar%%",
"%irrrrrr%arr11rr%sssssssssssssssssssssssssssarrrrrr+arrrrrr+irrr",
"%arrrrrr%irr11rrOsssssssssssssssssssssssssssar:rrrr%ar:rrrr%arrr",
"%irrrrrr%a:rr1rr%sssssssssssssssssssssssssssa:rrrrr+a:rrrrr+irrr",
"+arrrrrr%irr1rrr%sssssssssssssssssssssssssssirrrrrr%irrrrrr%arrr",
"+irrrrrr+arrrrrr%sssssssssssssssssssssssssssarrrrrr+arrrrrr+irrr",
"+arra:rr%arra:rr%sssssssssssssssssssssssssssarra:rr%arra:rr%arra",
"+ir%::rr+ar%::rr%sssssssssssssssssssssssssssar%::rr%ar%::rr%ir%:",
"+ar%%rrr%ar%%rr1%sssssssssssssssssssssssssssar%%rrr%ar%%rr:%ar%%",
"+irrr:r:Oarr1r1r%sssssssssssssssssssssssssssirrrrrr%irrrr:r%irrr",
"%ir::r:r%ar1r1rr%sssssssssssssssssssssssssssarrrrrr%arrr:r:%ir::",
"+ir:r:rrOa:11rrr+sssssssssssssssssssssssssssirrrrrr%arr:r:r%ir:r",
"%i:rrrrr%ar1rrrr%sssssssssssssssssssssssssssarrrrrr%ar:rrrr+i:rr",
"+irrrrrrOarrrrrr+sssssssssssssssssssssssssssirrrrrr+arrrrrr+irrr",
"%ir1a:rrOarra:rr%sssssssssssssssssssssssssssarra:rr%arra:rr+ir1a",
"%ar%::rrOar%::rr%sssssssssssssssssssssssssssir%::rr+ar%::rr+ar%:",
"%ir%%1rrOar%%rrr+sssssssssssssssssssssssssssar%%rrr%ar%%rrr+ir%%",
"%arr11rr%arrrr::%sssssssssssssssssssssssssssirrr:r:Oarrrrrr+arr1",
"%irr11rrOarrr::r+sssssssssssssssssssssssssssir::r:r%ar:rrrr%irr1"
};
