/* XPM */
static char *result[] = {
/* columns rows colors chars-per-pixel */
"64 64 20 1 ",
"  c #090609",
". c #201618",
"X c #3A272B",
"o c #3D2A2C",
"O c #3D2A2D",
"+ c #323D3E",
"@ c #483532",
"# c #4E3D35",
"$ c #4E3D36",
"% c #4E3E36",
"& c #4C3F38",
"* c #49433F",
"= c #444747",
"- c #444A4B",
"; c #404B4D",
": c #414C4E",
"> c #434F51",
", c #4B6265",
"< c #567A7F",
"1 c #000000",
/* pixels */
"11111111111111111111111111111111111111111111111111111111111,:+:+",
"11111111111111111111111111111111111111111111111111111111111,+:::",
"11111111111111111111111111111111111111111111111111111111111,::::",
"11111111111111111111111111111111111111111111111111111111111,:#<+",
"11111111111111111111111111111111111111111111111111111111111<:X++",
"11111111111111111111111111111111111111111111111111111111111,:XX#",
"11111111111111111111111111111111111111111111111111111111111<::##",
"11111111111111111111111111111111111111111111111111111111111,::##",
"11111111111111111111111111111111111111111111111111111111111<+::#",
"11111111111111111111111111111111111111111111111111111111111,::#:",
"11111111111111111111111111111111111111111111111111111111111<::::",
"11111111111111111111111111111111111111111111111111111111111<::<+",
"11111111111111111111111111111111111111111111111111111111111<:X++",
"11111111111111111111111111111111111111111111111111111111111<:XX:",
"11111111111111111111111111111111111111111111111111111111111<::#:",
"11111111111111111111111111111111111111111111111111111111111<:#:#",
"11111111111111111111111111111111111111111111111111111111111<+##:",
"11111111111111111111111111111111111111111111111111111111111<:#::",
"11111111111111111111111111111111111111111111111111111111111<::::",
"11111111111111111111111111111111111111111111111111111111111<::<+",
"11111111111111111111111111111111111111111111111111111111111<:X++",
"11111111111111111111111111111111111111111111111111111111111<:XX:",
"11111111111111111111111111111111111111111111111111111111111<::::",
">:11111111111111111111111111111111111111111111111111111111111::+",
":::11111111111111111111111111111111111111111111111111111111111;:",
"::::11111111111111111111111111111111111111111111111111111111111:",
"&*-::11111111111111111111111111111111111111111111111111111111111",
"##%=::1111111111111111111111111111111111111111111111111111111111",
"O@#%-::111111111111111111111111111111111111111111111111111111111",
"XX@#*::111111111111111111111111111111111111111111111111111111111",
".XO#&::111111111111111111111111111111111111111111111111111111111",
" XX#$::111111111111111111111111111111111111111111111111111111111",
".XO#&::111111111111111111111111111111111111111111111111111111111",
"XX@#*::111111111111111111111111111111111111111111111111111111111",
"o@#%-::111111111111111111111111111111111111111111111111111111111",
"##%=:::111111111111111111111111111111111111111111111111111111111",
"&*-:::1111111111111111111111111111111111111111111111111111111111",
":::::11111111111111111111111111111111111111111111111111111111111",
"::::11111111111111111111111111111111111111111111111111111111111:",
">::11111111111111111111111111111111111111111111111111111111111:+",
"11111111111111111111111111111111111111111111111111111111111<::+:",
"11111111111111111111111111111111111111111111111111111111111<:+::",
"11111111111111111111111111111111111111111111111111111111111<::::",
"11111111111111111111111111111111111111111111111111111111111<::<+",
"11111111111111111111111111111111111111111111111111111111111<:X++",
"11111111111111111111111111111111111111111111111111111111111<:XX:",
"11111111111111111111111111111111111111111111111111111111111<::::",
"11111111111111111111111111111111111111111111111111111111111<:+::",
"11111111111111111111111111111111111111111111111111111111111<+:::",
"11111111111111111111111111111111111111111111111111111111111,::::",
"11111111111111111111111111111111111111111111111111111111111<::::",
"11111111111111111111111111111111111111111111111111111111111<::<+",
"11111111111111111111111111111111111111111111111111111111111<:X++",
"11111111111111111111111111111111111111111111111111111111111<:XX:",
"11111111111111111111111111111111111111111111111111111111111,::::",
"11111111111111111111111111111111111111111111111111111111111<::::",
"11111111111111111111111111111111111111111111111111111111111,::::",
"11111111111111111111111111111111111111111111111111111111111<::::",
"11111111111111111111111111111111111111111111111111111111111,::::",
"11111111111111111111111111111111111111111111111111111111111<::<+",
"11111111111111111111111111111111111111111111111111111111111,:X++",
"11111111111111111111111111111111111111111111111111111111111<:XX:",
"11111111111111111111111111111111111111111111111111111111111,:::+",
"11111111111111111111111111111111111111111111111111111111111,:++:"
};
